<svg width="50" height="50" viewBox="0 0 50 50" fill="none" xmlns="http://www.w3.org/2000/svg">
<g id="&#209;&#151;&#208;&#182;&#208;&#176; 1" clip-path="url(#clip0_573_3048)">
<path id="Vector" d="M20.6352 33.7454C20.4757 33.7514 20.3167 33.7238 20.1685 33.6645C20.0203 33.6052 19.8861 33.5156 19.7747 33.4013L9.13643 22.6847C8.82628 22.3922 8.57919 22.0394 8.4103 21.648C8.24141 21.2565 8.1543 20.8347 8.1543 20.4084C8.1543 19.9821 8.24141 19.5603 8.4103 19.1689C8.57919 18.7774 8.82628 18.4247 9.13643 18.1322C9.43993 17.8287 9.80124 17.5893 10.199 17.4281C10.5967 17.2668 11.0227 17.1871 11.4518 17.1935C12.3137 17.2068 13.1394 17.5416 13.7672 18.1322L24.4994 28.8487C24.6137 28.9601 24.7034 29.0942 24.7626 29.2424C24.8219 29.3906 24.8495 29.5496 24.8436 29.7091C24.8505 29.8687 24.8234 30.028 24.7641 30.1764C24.7047 30.3247 24.6145 30.4588 24.4994 30.5696L21.6521 33.4951C21.3249 33.6209 20.9833 33.705 20.6352 33.7454ZM11.3736 18.226C10.7993 18.2388 10.247 18.4487 9.80913 18.8205C9.60458 19.0136 9.44164 19.2463 9.33026 19.5046C9.21889 19.7628 9.16144 20.0411 9.16144 20.3224C9.16144 20.6036 9.21889 20.8819 9.33026 21.1402C9.44164 21.3984 9.60458 21.6312 9.80913 21.8242L20.5257 32.5408H20.6978L23.6233 29.6309V29.4588L12.9068 18.9144C12.7108 18.7023 12.4739 18.5319 12.2105 18.4137C11.947 18.2954 11.6623 18.2315 11.3736 18.226Z" fill="#7D7D80" stroke="#7D7D80" stroke-width="0.5" stroke-miterlimit="10"/>
<path id="Vector_2" d="M33.589 42.913C33.5219 42.9149 33.4553 42.9002 33.3952 42.8702C33.3352 42.8402 33.2835 42.7958 33.2448 42.7409L22.2936 31.7897C22.2145 31.6843 22.1761 31.5538 22.1855 31.4223C22.1948 31.2908 22.2512 31.1672 22.3444 31.074C22.4376 30.9808 22.5614 30.9243 22.6928 30.915C22.8243 30.9056 22.9547 30.944 23.0602 31.0231L34.0114 41.9743C34.0964 42.084 34.1425 42.2188 34.1425 42.3576C34.1425 42.4963 34.0964 42.6312 34.0114 42.7409C33.8898 42.8374 33.7433 42.8971 33.589 42.913Z" fill="#7D7D80" stroke="#7D7D80" stroke-width="0.5" stroke-miterlimit="10"/>
<path id="Vector_3" d="M30.8355 45.6666C30.7694 45.6629 30.7048 45.6457 30.6456 45.6161C30.5864 45.5865 30.5339 45.5451 30.4913 45.4945L25.0157 40.0033C24.4522 39.4546 24.0887 38.7331 23.9832 37.9538C23.935 37.58 23.9719 37.2001 24.0911 36.8425C24.2103 36.4849 24.4087 36.1589 24.6715 35.8887L26.8931 33.6516C27.5108 33.1731 28.2853 32.9431 29.0641 33.0068C29.8428 33.0704 30.5696 33.4233 31.1015 33.9958L36.5927 39.487C36.6964 39.5907 36.7547 39.7314 36.7547 39.8781C36.7547 40.0248 36.6964 40.1655 36.5927 40.2692C36.4889 40.3729 36.3482 40.4312 36.2015 40.4312C36.0548 40.4312 35.9142 40.3729 35.8104 40.2692L30.3192 34.778C30.1701 34.5769 29.982 34.4079 29.7661 34.2811C29.5502 34.1544 29.3109 34.0725 29.0626 34.0404C28.8143 34.0083 28.5621 34.0265 28.321 34.0941C28.08 34.1617 27.855 34.2773 27.6596 34.4338L25.4381 36.6553C25.2896 36.8146 25.1809 37.0068 25.1211 37.2162C25.0612 37.4256 25.0519 37.6462 25.0939 37.8599C25.1883 38.4141 25.4568 38.9237 25.8605 39.3149L31.3518 44.8061C31.4368 44.9158 31.4829 45.0507 31.4829 45.1894C31.4829 45.3282 31.4368 45.463 31.3518 45.5727C31.1891 45.6431 31.0125 45.6752 30.8355 45.6666Z" fill="#7D7D80" stroke="#7D7D80" stroke-width="0.5" stroke-miterlimit="10"/>
<path id="Vector_4" d="M41.1295 34.1677C40.681 34.1798 40.235 34.0952 39.822 33.9198C39.409 33.7443 39.0386 33.4821 38.7359 33.1508L27.7847 22.1997C27.6997 22.09 27.6536 21.9551 27.6536 21.8164C27.6536 21.6776 27.6997 21.5427 27.7847 21.433L27.9568 21.261C27.6126 21.261 27.3623 21.3548 27.0181 21.3548C24.2708 21.3124 21.6512 20.188 19.7277 18.2259C17.846 16.4266 16.7262 13.974 16.5988 11.3736C16.529 10.1382 16.7232 8.90216 17.1683 7.74763C17.6134 6.5931 18.2992 5.54658 19.1802 4.67773C19.2899 4.59274 19.4247 4.54663 19.5635 4.54663C19.7023 4.54663 19.8371 4.59274 19.9468 4.67773L43.5544 28.4262C43.8803 28.7452 44.1393 29.1261 44.3161 29.5466C44.4928 29.967 44.5839 30.4185 44.5839 30.8745C44.5839 31.3306 44.4928 31.7821 44.3161 32.2026C44.1393 32.623 43.8803 33.0039 43.5544 33.3229C42.8524 33.8475 42.0055 34.1426 41.1295 34.1677ZM28.8642 21.8242L39.5025 32.4625C39.9623 32.9108 40.5812 33.1583 41.2234 33.1508C41.8539 33.1236 42.4559 32.8806 42.9286 32.4625C43.151 32.2441 43.3276 31.9835 43.4481 31.6961C43.5686 31.4087 43.6307 31.1002 43.6307 30.7885C43.6307 30.4768 43.5686 30.1683 43.4481 29.8809C43.3276 29.5935 43.151 29.3329 42.9286 29.1145L19.4618 5.78848C18.1494 7.3081 17.4717 9.27421 17.5688 11.2797C17.6905 13.6048 18.6718 15.8016 20.3222 17.4437C21.1688 18.3132 22.1806 19.0047 23.2983 19.4776C24.4159 19.9504 25.6168 20.1951 26.8304 20.1972C27.6467 20.2112 28.46 20.095 29.2397 19.853C29.2948 19.8278 29.3546 19.8142 29.4152 19.8133C29.4758 19.8124 29.536 19.824 29.5919 19.8476C29.6477 19.8711 29.6981 19.906 29.7398 19.95C29.7815 19.994 29.8137 20.0462 29.8342 20.1033C29.8903 20.2093 29.9197 20.3275 29.9197 20.4475C29.9197 20.5675 29.8903 20.6856 29.8342 20.7917L28.8642 21.8242Z" fill="#7D7D80" stroke="#7D7D80" stroke-width="0.5" stroke-miterlimit="10"/>
<path id="Vector_5" d="M25.0157 49.6089C19.3261 49.6058 13.8136 47.63 9.41733 44.0183C5.0211 40.4065 2.01314 35.3822 0.905969 29.8014C-0.201202 24.2205 0.660875 18.4284 3.34537 13.4119C6.02987 8.39544 10.3707 4.46492 15.6282 2.29005C20.8857 0.115174 26.7347 -0.169506 32.1786 1.48452C37.6224 3.13855 42.3244 6.62898 45.4834 11.3611C48.6424 16.0931 50.0629 21.7741 49.5029 27.4361C48.9429 33.0981 46.4371 38.3907 42.4124 42.4124C40.1331 44.7033 37.4217 46.5191 34.4354 47.7544C31.4491 48.9897 28.2474 49.6201 25.0157 49.6089ZM25.0157 1.32979C20.3364 1.28659 15.7511 2.6433 11.8487 5.2257C7.94633 7.80809 4.90512 11.4982 3.11572 15.822C1.32633 20.1458 0.870451 24.9059 1.8067 29.4908C2.74294 34.0756 5.02855 38.2758 8.36988 41.5519C12.7939 45.9592 18.7712 48.4535 25.0157 48.4981C28.1101 48.5029 31.1744 47.8911 34.0297 46.6984C36.885 45.5058 39.4742 43.7563 41.6458 41.5519C46.0559 37.1299 48.5508 31.1512 48.592 24.9061C48.5551 18.6647 46.0593 12.6894 41.6458 8.27593C37.2324 3.86249 31.2571 1.36673 25.0157 1.32979Z" fill="#7D7D80" stroke="#7D7D80" stroke-width="0.5" stroke-miterlimit="10"/>
<path id="Vector_6" d="M21.4017 43.8674C17.6215 43.1469 14.1507 41.2914 11.4518 38.5482C11.3727 38.4428 11.3343 38.3123 11.3437 38.1809C11.353 38.0494 11.4094 37.9257 11.5026 37.8325C11.5958 37.7393 11.7196 37.6828 11.851 37.6735C11.9825 37.6642 12.1129 37.7026 12.2184 37.7816C14.7784 40.3397 18.0492 42.0678 21.6051 42.741C21.8711 42.8348 22.1214 43.0851 22.0431 43.3511C22.0138 43.4987 21.9335 43.6314 21.8162 43.7257C21.699 43.8201 21.5522 43.8703 21.4017 43.8674Z" fill="#7D7D80" stroke="#7D7D80" stroke-width="0.5" stroke-miterlimit="10"/>
<path id="Vector_7" d="M43.0225 20.2753C42.9012 20.2743 42.7838 20.2319 42.6899 20.1551C42.596 20.0783 42.5312 19.9717 42.5062 19.8529C41.6087 16.8993 39.9966 14.2125 37.8128 12.0306C36.1563 10.3427 34.1794 9.00275 31.9979 8.08933C29.8164 7.17591 27.4744 6.70747 25.1095 6.7115C24.9778 6.70036 24.8545 6.64196 24.7625 6.54707C24.6705 6.45219 24.616 6.32719 24.6089 6.1952C24.616 6.06322 24.6705 5.93827 24.7625 5.84338C24.8545 5.7485 24.9778 5.69009 25.1095 5.67896C30.165 5.7439 34.9964 7.77522 38.5795 11.3423C40.8965 13.6523 42.5824 16.5179 43.4762 19.6652C43.5089 19.8 43.4922 19.942 43.429 20.0654C43.3658 20.1889 43.2605 20.2856 43.132 20.3379L43.0225 20.2753Z" fill="#7D7D80" stroke="#7D7D80" stroke-width="0.5" stroke-miterlimit="10"/>
</g>
<defs>
<clipPath id="clip0_573_3048">
<rect width="50" height="50" fill="white"/>
</clipPath>
</defs>
</svg>
