<svg width="33" height="38" viewBox="0 0 33 38" fill="none" xmlns="http://www.w3.org/2000/svg">
<g id="&#208;&#187;&#209;&#150;&#209;&#130;&#208;&#176;&#208;&#186; 1" clip-path="url(#clip0_140_410)">
<path id="Vector" d="M18.8398 22.6999L30.3898 28.6999C30.5539 28.7837 30.7413 28.8106 30.9223 28.7762C31.1034 28.7418 31.2679 28.6481 31.3898 28.5099C31.5105 28.3741 31.5821 28.2017 31.5929 28.0203C31.6038 27.8389 31.5534 27.6592 31.4498 27.5099L28.7498 23.5799C28.819 23.4928 28.8793 23.399 28.9298 23.2999L29.5098 22.1999C29.6137 22.0011 29.6773 21.7838 29.6969 21.5603C29.7164 21.3369 29.6915 21.1117 29.6236 20.8979C29.5558 20.6841 29.4463 20.4859 29.3015 20.3146C29.1566 20.1433 28.9793 20.0024 28.7798 19.8999C28.4143 19.7028 27.9885 19.6489 27.5855 19.7487C27.1824 19.8486 26.831 20.095 26.5998 20.4399L25.3898 18.6899L25.8598 17.7899C26.0681 17.3889 26.1111 16.9223 25.9798 16.4899C25.9126 16.2761 25.8038 16.0776 25.6597 15.906C25.5155 15.7344 25.3388 15.593 25.1398 15.4899C24.7388 15.2817 24.2722 15.2386 23.8398 15.3699C23.6463 15.432 23.4664 15.5305 23.3098 15.6599L22.9498 15.1399C26.0698 8.6699 28.1198 1.3399 25.8298 0.139897C23.5398 -1.0601 18.3598 4.7699 14.8298 11.0799H13.9298C13.9769 10.7339 13.9157 10.3818 13.7545 10.072C13.5933 9.76221 13.3402 9.50996 13.0298 9.34992C12.6278 9.14273 12.1601 9.10321 11.7291 9.24003C11.298 9.37684 10.9387 9.67881 10.7298 10.0799L10.1898 11.0799H8.07982C8.26905 10.6836 8.29657 10.2292 8.15657 9.81296C8.01658 9.39672 7.72007 9.05132 7.32982 8.84992C7.13289 8.74198 6.9159 8.67562 6.69228 8.65497C6.46866 8.63433 6.24316 8.65982 6.0298 8.72989C5.59953 8.86849 5.24059 9.17002 5.0298 9.56992L4.4598 10.6799C4.38613 10.8174 4.33547 10.966 4.3098 11.1199L-0.190198 11.1699C-0.370878 11.1723 -0.545556 11.2351 -0.686445 11.3483C-0.827334 11.4614 -0.926339 11.6184 -0.967725 11.7943C-1.00911 11.9702 -0.990495 12.1549 -0.914838 12.319C-0.839181 12.4831 -0.710819 12.6171 -0.550184 12.6999L10.9998 18.6999C10.1365 20.9568 9.53591 23.3056 9.2098 25.6999C9.0898 26.3899 8.97982 27.0399 8.85982 27.6299L2.79982 29.6499C2.60994 29.708 2.44798 29.8338 2.34474 30.0034C2.24151 30.173 2.20418 30.3746 2.23982 30.5699C2.27576 30.764 2.38047 30.9386 2.53478 31.0616C2.68908 31.1847 2.88261 31.248 3.07982 31.2399C3.13982 31.2399 8.8798 31.0099 13.4998 36.6999C13.5753 36.7942 13.6713 36.8703 13.7804 36.9222C13.8895 36.9742 14.009 37.0007 14.1298 36.9999C14.2577 36.9993 14.3836 36.9687 14.4976 36.9107C14.6116 36.8527 14.7104 36.7689 14.7862 36.6659C14.862 36.5629 14.9126 36.4436 14.9341 36.3176C14.9556 36.1915 14.9472 36.0622 14.9098 35.9399L12.9998 29.9399L13.6698 29.2099C15.5928 27.2062 17.3237 25.0267 18.8398 22.6999ZM6.6498 30.1599L9.78981 29.1599C9.92319 29.1167 10.0431 29.0396 10.1377 28.9362C10.2324 28.8328 10.2986 28.7066 10.3298 28.5699C10.5098 27.8199 10.6598 26.9699 10.7998 26.0799C11.141 23.5592 11.8135 21.0946 12.7998 18.7499C12.8853 18.5605 12.8957 18.3457 12.8288 18.1489C12.762 17.9522 12.623 17.7881 12.4398 17.6899L3.09981 12.8499H4.85982C4.96253 12.9412 5.07685 13.0185 5.19982 13.0799C5.43931 13.21 5.70729 13.2787 5.97982 13.2799C6.15604 13.2778 6.33108 13.2508 6.4998 13.1999C6.73176 13.1185 6.94572 12.9928 7.12981 12.8299H10.1298C10.2921 13.1426 10.5471 13.3976 10.8598 13.5599C11.1001 13.6869 11.3681 13.7522 11.6398 13.7499C11.8164 13.7527 11.9922 13.7256 12.1598 13.6699C12.3746 13.6048 12.574 13.4968 12.7459 13.3524C12.9178 13.208 13.0586 13.0303 13.1598 12.8299H15.2698C15.4147 12.8289 15.5568 12.7895 15.6815 12.7157C15.8062 12.6419 15.9091 12.5364 15.9798 12.4099C19.8398 5.31992 23.9798 1.8099 24.9798 1.7399C25.4198 2.5499 24.9798 7.3399 21.1998 14.9599C21.1364 15.091 21.1076 15.2361 21.1164 15.3814C21.1251 15.5268 21.1711 15.6674 21.2498 15.7899L22.2498 17.2699L22.1598 17.4399C21.99 17.8217 21.9686 18.2531 22.0998 18.6499C22.2384 19.0802 22.5399 19.4391 22.9398 19.6499C23.1808 19.775 23.4483 19.8401 23.7198 19.8399C23.848 19.8387 23.9756 19.8219 24.0998 19.7899L25.7198 22.1499C25.635 22.4473 25.635 22.7625 25.7198 23.0599C25.8584 23.4902 26.1599 23.8491 26.5598 24.0599C26.7378 24.1511 26.931 24.2087 27.1298 24.2299L28.1898 25.7699L18.8498 20.9199C18.6657 20.8249 18.4521 20.8041 18.2531 20.8618C18.054 20.9194 17.8847 21.0512 17.7798 21.2299C16.2429 23.71 14.4424 26.0167 12.4098 28.1099L11.4098 29.2099C11.3174 29.3147 11.2532 29.4413 11.2235 29.5778C11.1937 29.7143 11.1994 29.8562 11.2398 29.9899L12.2398 33.2299C10.6073 31.8332 8.70432 30.7882 6.6498 30.1599ZM5.6498 11.3699L6.21981 10.2599C6.25556 10.1959 6.30783 10.1427 6.37114 10.1057C6.43446 10.0688 6.50652 10.0495 6.57982 10.0499C6.639 10.0359 6.70063 10.0359 6.75981 10.0499C6.80646 10.0742 6.84787 10.1074 6.88167 10.1477C6.91547 10.188 6.94098 10.2345 6.95677 10.2847C6.97256 10.3348 6.97831 10.3876 6.97368 10.44C6.96905 10.4924 6.95413 10.5433 6.9298 10.5899L6.35982 11.6999C6.30735 11.7918 6.22133 11.8599 6.1198 11.8899C6.07292 11.9121 6.02169 11.9237 5.96981 11.9237C5.91792 11.9237 5.86669 11.9121 5.81981 11.8899C5.77208 11.8654 5.72978 11.8315 5.69542 11.7902C5.66106 11.749 5.63533 11.7013 5.6198 11.6499C5.5819 11.561 5.57836 11.4613 5.60982 11.3699H5.6498ZM11.9198 10.7099C11.9534 10.6433 12.0048 10.5875 12.0684 10.5486C12.132 10.5097 12.2053 10.4894 12.2798 10.4899C12.3429 10.4925 12.4044 10.5096 12.4598 10.5399C12.5072 10.5624 12.5495 10.5944 12.5839 10.634C12.6183 10.6736 12.6442 10.7198 12.6598 10.7699C12.6993 10.8695 12.6993 10.9803 12.6598 11.0799L12.0898 12.1799C12.0668 12.2287 12.0334 12.2719 11.992 12.3065C11.9505 12.341 11.902 12.3661 11.8498 12.3799C11.8023 12.3997 11.7513 12.4099 11.6998 12.4099C11.6483 12.4099 11.5974 12.3997 11.5498 12.3799C11.5032 12.3557 11.4618 12.3224 11.428 12.2821C11.3942 12.2419 11.3687 12.1953 11.3529 12.1451C11.3371 12.095 11.3313 12.0422 11.3359 11.9898C11.3406 11.9375 11.3555 11.8865 11.3798 11.8399L11.9198 10.7099ZM24.2198 16.6499C24.2592 16.6402 24.3004 16.6402 24.3398 16.6499C24.4023 16.6357 24.4673 16.6357 24.5298 16.6499C24.6217 16.7024 24.6898 16.7884 24.7198 16.8899C24.742 16.9368 24.7536 16.988 24.7536 17.0399C24.7536 17.0918 24.742 17.143 24.7198 17.1899L24.1398 18.2999C24.0908 18.3941 24.0063 18.4649 23.905 18.4967C23.8037 18.5286 23.694 18.519 23.5998 18.4699C23.5057 18.4208 23.4349 18.3364 23.403 18.2351C23.3711 18.1338 23.3807 18.0241 23.4298 17.9299L23.9998 16.8199C24.0511 16.7394 24.1289 16.6792 24.2198 16.6499ZM27.0498 22.3599L27.6298 21.2499C27.6783 21.1586 27.761 21.0903 27.8598 21.0599C27.9084 21.0375 27.9613 21.0259 28.0148 21.0259C28.0683 21.0259 28.1212 21.0375 28.1698 21.0599C28.2614 21.1154 28.3318 21.1998 28.3698 21.2999C28.3896 21.3474 28.3998 21.3984 28.3998 21.4499C28.3998 21.5014 28.3896 21.5524 28.3698 21.5999L27.7898 22.7099C27.7409 22.803 27.6588 22.8744 27.5598 22.9099C27.4602 22.9494 27.3494 22.9494 27.2498 22.9099C27.2036 22.8848 27.1629 22.8506 27.1303 22.8093C27.0976 22.7681 27.0736 22.7206 27.0598 22.6699C27.0386 22.6159 27.0312 22.5575 27.0381 22.4999C27.0451 22.4422 27.0663 22.3873 27.0998 22.3399L27.0498 22.3599Z" fill="#7D7D80"/>
</g>
<defs>
<clipPath id="clip0_140_410">
<rect width="32.59" height="37.02" fill="white"/>
</clipPath>
</defs>
</svg>
