<svg width="35" height="38" viewBox="0 0 35 38" fill="none" xmlns="http://www.w3.org/2000/svg">
<g id="&#208;&#191;&#208;&#187;&#209;&#143;&#208;&#182; 1" clip-path="url(#clip0_140_420)">
<path id="Vector" d="M1.97433 23.3334C1.97433 22.7229 2.21683 22.1374 2.64851 21.7058C3.08019 21.2741 3.66567 21.0316 4.27616 21.0316C4.88664 21.0316 5.47213 21.2741 5.9038 21.7058C6.33548 22.1374 6.57798 22.7229 6.57798 23.3334C6.58254 23.4849 6.61973 23.6337 6.68701 23.7695C6.84732 24.797 7.37655 25.7309 8.17565 26.3965C8.97474 27.062 9.98895 27.4135 11.0285 27.3853C12.0681 27.3571 13.0618 26.9511 13.8236 26.2432C14.5854 25.5353 15.0631 24.574 15.1675 23.5393C15.1733 23.4708 15.1733 23.4019 15.1675 23.3334C15.2097 22.7502 15.4713 22.2046 15.8994 21.8064C16.3276 21.4082 16.8907 21.1868 17.4754 21.1868C18.0601 21.1868 18.6232 21.4082 19.0513 21.8064C19.4795 22.2046 19.741 22.7502 19.7833 23.3334C19.782 23.4857 19.8195 23.6358 19.8923 23.7695C20.0526 24.797 20.5818 25.7309 21.3809 26.3965C22.18 27.062 23.1942 27.4135 24.2338 27.3853C25.2733 27.3571 26.267 26.9511 27.0288 26.2432C27.7906 25.5353 28.2684 24.574 28.3727 23.5393C28.3786 23.4708 28.3786 23.4019 28.3727 23.3334C28.3727 22.7229 28.6153 22.1374 29.0469 21.7058C29.4786 21.2741 30.0641 21.0316 30.6746 21.0316C31.2851 21.0316 31.8705 21.2741 32.3022 21.7058C32.7339 22.1374 32.9764 22.7229 32.9764 23.3334C32.9764 23.5937 33.0798 23.8433 33.2638 24.0273C33.4479 24.2113 33.6974 24.3147 33.9577 24.3147C34.0876 24.3163 34.2165 24.2921 34.337 24.2435C34.4574 24.1949 34.567 24.1229 34.6594 24.0316C34.7518 23.9403 34.8252 23.8316 34.8753 23.7117C34.9254 23.5919 34.9512 23.4633 34.9511 23.3334C34.9797 22.2163 34.5699 21.1324 33.8094 20.3136C33.0489 19.4949 31.9982 19.0063 30.882 18.9525C29.7658 18.8986 28.6729 19.2838 27.8371 20.0256C27.0014 20.7674 26.4892 21.8068 26.4101 22.9215C26.4043 22.99 26.4043 23.0589 26.4101 23.1274C26.3679 23.7106 26.1063 24.2562 25.6782 24.6545C25.25 25.0527 24.6869 25.2741 24.1022 25.2741C23.5175 25.2741 22.9544 25.0527 22.5263 24.6545C22.0981 24.2562 21.8366 23.7106 21.7943 23.1274C21.7956 22.9752 21.7581 22.8251 21.6853 22.6913C21.525 21.6638 20.9958 20.7299 20.1967 20.0644C19.3976 19.3989 18.3834 19.0473 17.3438 19.0756C16.3042 19.1038 15.3106 19.5098 14.5488 20.2177C13.787 20.9256 13.3092 21.8868 13.2048 22.9215C13.199 22.99 13.199 23.0589 13.2048 23.1274C13.2048 23.7379 12.9623 24.3234 12.5307 24.7551C12.099 25.1868 11.5135 25.4293 10.903 25.4293C10.2925 25.4293 9.70705 25.1868 9.27537 24.7551C8.8437 24.3234 8.60119 23.7379 8.60119 23.1274C8.59663 22.9759 8.55945 22.8272 8.49216 22.6913C8.30109 21.6532 7.73286 20.7225 6.89679 20.0781C6.06073 19.4338 5.01591 19.1214 3.96338 19.2011C2.91085 19.2808 1.92496 19.7469 1.19544 20.5098C0.465926 21.2726 0.0443109 22.2784 0.0117188 23.3334C0.0117188 23.5937 0.115106 23.8433 0.299138 24.0273C0.483169 24.2113 0.732765 24.3147 0.993024 24.3147H1.11418C1.354 24.2876 1.57504 24.172 1.73412 23.9905C1.89321 23.809 1.97887 23.5747 1.97433 23.3334Z" fill="#7D7D80"/>
<path id="Vector_2" d="M30.7839 28.7971C29.7186 28.7982 28.6918 29.1958 27.9035 29.9124C27.1152 30.6291 26.6218 31.6135 26.5195 32.6739C26.5135 32.7384 26.5135 32.8033 26.5195 32.8678C26.5425 33.1849 26.4999 33.5034 26.3943 33.8033C26.2888 34.1032 26.1225 34.3782 25.9059 34.611C25.6894 34.8438 25.4272 35.0295 25.1357 35.1565C24.8441 35.2835 24.5296 35.349 24.2116 35.349C23.8937 35.349 23.5791 35.2835 23.2875 35.1565C22.996 35.0295 22.7338 34.8438 22.5173 34.611C22.3007 34.3782 22.1345 34.1032 22.0289 33.8033C21.9234 33.5034 21.8807 33.1849 21.9037 32.8678C21.905 32.7155 21.8675 32.5654 21.7947 32.4316C21.6332 31.404 21.1027 30.4706 20.3026 29.8059C19.5025 29.1413 18.4876 28.791 17.4478 28.8207C16.4081 28.8505 15.4148 29.2581 14.6539 29.9673C13.8931 30.6766 13.4168 31.6388 13.3142 32.6739C13.3083 32.7384 13.3083 32.8033 13.3142 32.8678C13.3142 33.4782 13.0717 34.0637 12.64 34.4954C12.2084 34.9271 11.6229 35.1696 11.0124 35.1696C10.4019 35.1696 9.81642 34.9271 9.38475 34.4954C8.95307 34.0637 8.71057 33.4782 8.71057 32.8678C8.70601 32.7162 8.66882 32.5674 8.60154 32.4316C8.41046 31.3935 7.84223 30.4627 7.00617 29.8184C6.1701 29.1741 5.12528 28.8617 4.07275 28.9414C3.02022 29.0211 2.03434 29.4872 1.30482 30.2501C0.575301 31.0129 0.153686 32.0186 0.121094 33.0737C0.121074 33.3351 0.224082 33.5859 0.407773 33.7719C0.591464 33.9579 0.841032 34.0639 1.1024 34.0671H1.22356C1.46449 34.0402 1.68691 33.925 1.84797 33.7438C2.00903 33.5626 2.09733 33.3282 2.09583 33.0858C2.09583 32.4753 2.33833 31.8898 2.77001 31.4582C3.20169 31.0265 3.78717 30.784 4.39766 30.784C5.00814 30.784 5.59363 31.0265 6.0253 31.4582C6.45698 31.8898 6.69949 32.4753 6.69949 33.0858C6.70417 33.2412 6.74131 33.3939 6.80852 33.5341C6.97 34.5616 7.50047 35.4951 8.30059 36.1598C9.10071 36.8244 10.1156 37.1747 11.1554 37.1449C12.1951 37.1152 13.1884 36.7076 13.9492 35.9984C14.7101 35.2891 15.1864 34.3269 15.289 33.2918C15.2954 33.2233 15.2954 33.1543 15.289 33.0858C15.3312 32.5026 15.5928 31.957 16.0209 31.5588C16.4491 31.1606 17.0121 30.9392 17.5968 30.9392C18.1816 30.9392 18.7447 31.1606 19.1728 31.5588C19.601 31.957 19.8625 32.5026 19.9047 33.0858C19.9035 33.2419 19.941 33.3959 20.0138 33.5341C20.1753 34.5616 20.7057 35.4951 21.5058 36.1598C22.306 36.8244 23.3209 37.1747 24.3607 37.1449C25.4004 37.1152 26.3937 36.7076 27.1545 35.9984C27.9154 35.2891 28.3917 34.3269 28.4942 33.2918C28.5009 33.2233 28.5009 33.1543 28.4942 33.0858C28.4942 32.4753 28.7368 31.8898 29.1684 31.4582C29.6001 31.0265 30.1856 30.784 30.7961 30.784C31.4066 30.784 31.992 31.0265 32.4237 31.4582C32.8554 31.8898 33.0979 32.4753 33.0979 33.0858C33.0979 33.3472 33.2009 33.5981 33.3846 33.784C33.5683 33.97 33.8178 34.0761 34.0792 34.0792C34.3427 34.0792 34.5954 33.9746 34.7817 33.7883C34.968 33.602 35.0726 33.3493 35.0726 33.0858C35.0694 31.9494 34.6166 30.8604 33.813 30.0568C33.0094 29.2532 31.9204 28.8003 30.7839 28.7971Z" fill="#7D7D80"/>
<path id="Vector_3" d="M21.3104 14.3926C20.6623 15.0625 19.83 15.5251 18.9189 15.7219C18.0078 15.9188 17.0588 15.8411 16.1919 15.4985C15.325 15.156 14.5791 14.5641 14.0486 13.7976C13.5181 13.0312 13.2268 12.1246 13.2116 11.1926C13.1963 10.2606 13.4578 9.34504 13.9629 8.56165C14.468 7.77826 15.1941 7.16226 16.0494 6.79155C16.9046 6.42085 17.8506 6.31209 18.7677 6.47903C19.6847 6.64597 20.5317 7.08111 21.2014 7.72942C21.6503 8.15726 22.0097 8.67015 22.2586 9.2382C22.5074 9.80625 22.6408 10.4181 22.6509 11.0382C22.6611 11.6583 22.5478 12.2742 22.3177 12.8501C22.0875 13.426 21.7451 13.9503 21.3104 14.3926ZM15.7497 8.86822C15.1857 9.44923 14.8703 10.2271 14.8703 11.0368C14.8703 11.8465 15.1857 12.6243 15.7497 13.2053C16.3398 13.7766 17.1251 14.1019 17.9463 14.1154C18.7675 14.1289 19.5631 13.8296 20.1716 13.278C20.7397 12.6761 21.048 11.8747 21.0298 11.0472C21.0117 10.2197 20.6686 9.43261 20.0747 8.8561C19.7911 8.57081 19.4537 8.34465 19.0821 8.19068C18.7104 8.03671 18.312 7.958 17.9097 7.95912C17.5074 7.96025 17.1093 8.04117 16.7386 8.19722C16.3678 8.35327 16.0317 8.58135 15.7497 8.86822Z" fill="#7D7D80" stroke="#7D7D80" stroke-width="0.3" stroke-miterlimit="10"/>
<path id="Vector_4" d="M12.9627 6.10604C12.8196 6.22967 12.6368 6.29767 12.4478 6.29767C12.2587 6.29767 12.0759 6.22967 11.9329 6.10604L10.4549 4.64011C10.3167 4.50356 10.2385 4.31772 10.2373 4.12347C10.2362 3.92921 10.3122 3.74247 10.4488 3.60431C10.5854 3.46615 10.7712 3.38787 10.9655 3.38673C11.1597 3.3856 11.3465 3.46169 11.4846 3.59825L12.9627 5.06414C13.0921 5.20679 13.1637 5.39252 13.1637 5.58511C13.1637 5.77771 13.0921 5.9634 12.9627 6.10604Z" fill="#7D7D80" stroke="#7D7D80" stroke-width="0.3" stroke-miterlimit="10"/>
<path id="Vector_5" d="M10.6492 11.5698C10.5798 11.634 10.4973 11.6825 10.4074 11.7117C10.3174 11.741 10.2222 11.7505 10.1283 11.7394L7.95972 11.8363C7.52358 11.9211 7.18437 11.5819 7.17225 11.061C7.16014 10.54 7.43877 10.2856 7.95972 10.2735L10.1162 10.1887C10.5523 10.0918 10.9036 10.4431 10.9036 10.964C10.916 11.0783 10.8991 11.1938 10.8546 11.2998C10.8101 11.4057 10.7395 11.4986 10.6492 11.5698Z" fill="#7D7D80" stroke="#7D7D80" stroke-width="0.3" stroke-miterlimit="10"/>
<path id="Vector_6" d="M28.3609 11.6061C28.2924 11.6718 28.21 11.7211 28.1198 11.7505C28.0296 11.7799 27.934 11.7885 27.84 11.7757H25.8168C25.6193 11.7491 25.4357 11.6591 25.2938 11.5193C25.1518 11.3795 25.059 11.1974 25.0293 11.0004C25.054 10.8021 25.1433 10.6176 25.2835 10.4752C25.4236 10.3329 25.6068 10.2407 25.8047 10.2129H27.8884C28.0854 10.2426 28.2676 10.3354 28.4074 10.4774C28.5472 10.6194 28.6372 10.8029 28.6638 11.0004C28.6389 11.2321 28.5314 11.4472 28.3609 11.6061Z" fill="#7D7D80" stroke="#7D7D80" stroke-width="0.3" stroke-miterlimit="10"/>
<path id="Vector_7" d="M25.4416 4.50676L23.9757 6.02112C23.8343 6.14186 23.6525 6.20486 23.4667 6.19755C23.281 6.19023 23.1048 6.11315 22.9733 5.98167C22.8418 5.85019 22.7647 5.67397 22.7574 5.48817C22.7501 5.30238 22.8131 5.12066 22.9338 4.97926L24.3997 3.50123C24.5458 3.37899 24.7302 3.31201 24.9207 3.31201C25.1111 3.31201 25.2955 3.37899 25.4416 3.50123C25.7929 3.59815 25.7929 4.15542 25.4416 4.50676Z" fill="#7D7D80" stroke="#7D7D80" stroke-width="0.3" stroke-miterlimit="10"/>
<path id="Vector_8" d="M18.4267 3.74351C18.3594 3.81134 18.2775 3.86294 18.1872 3.89443C18.097 3.92591 18.0007 3.93644 17.9058 3.92523C17.4696 4.01003 17.1183 3.65872 17.1183 3.14989L17.0214 0.98131C16.9366 0.545173 17.2879 0.193848 17.8089 0.193848C18.3298 0.193848 18.5842 0.448242 18.5842 0.969183L18.6812 3.13776C18.766 3.40429 18.5963 3.59813 18.4267 3.74351Z" fill="#7D7D80" stroke="#7D7D80" stroke-width="0.3" stroke-miterlimit="10"/>
</g>
<defs>
<clipPath id="clip0_140_420">
<rect width="35" height="37.1565" fill="white"/>
</clipPath>
</defs>
</svg>
