<svg width="37" height="39" viewBox="0 0 37 39" fill="none" xmlns="http://www.w3.org/2000/svg">
<g id="&#208;&#186;&#208;&#181;&#208;&#188;&#208;&#191;&#209;&#150;&#208;&#189;&#208;&#179; 1" clip-path="url(#clip0_140_313)">
<path id="Vector" d="M36.865 37.7725C36.9521 37.6193 36.9979 37.4461 36.9979 37.2698C36.9979 37.0936 36.9521 36.9204 36.865 36.7672L20.9273 9.79569L19.7014 7.5644L23.1709 1.43451C23.2366 1.32113 23.2792 1.19587 23.2963 1.06595C23.3133 0.936024 23.3045 0.804015 23.2703 0.677516C23.2362 0.551016 23.1773 0.432529 23.0971 0.328893C23.0169 0.225257 22.917 0.138538 22.8031 0.0736932C22.5719 -0.0546971 22.2994 -0.0868281 22.0447 -0.0156885C21.7899 0.0554511 21.5735 0.224127 21.4423 0.453743L18.5489 5.51704L16.097 1.26289C16.0321 1.14902 15.9454 1.04909 15.8418 0.968895C15.7381 0.888703 15.6197 0.82982 15.4932 0.795631C15.3667 0.761442 15.2347 0.752636 15.1047 0.769703C14.9748 0.786771 14.8495 0.829376 14.7362 0.895077C14.5066 1.02631 14.3379 1.24275 14.2668 1.49748C14.1956 1.7522 14.2277 2.02471 14.3561 2.25593L17.372 7.53989L16.6487 8.76587L0.134772 36.7672C0.0477218 36.9204 0.00195312 37.0936 0.00195312 37.2698C0.00195312 37.4461 0.0477218 37.6193 0.134772 37.7725C0.224832 37.9237 0.352116 38.0492 0.504496 38.1372C0.656877 38.2252 0.82926 38.2727 1.00521 38.2752H36.0069C36.1807 38.2707 36.3506 38.2222 36.5007 38.1343C36.6507 38.0464 36.7761 37.9219 36.865 37.7725ZM11.7816 36.2645L18.4999 24.8997L25.206 36.2645H11.7816ZM10.6291 22.9382L12.8359 19.2602L17.4946 11.3772V22.6685L17.3352 22.9504L9.45221 36.289H2.74611L10.6291 22.9382ZM27.5354 36.2768L19.6523 22.9382L19.493 22.6562V11.3282L24.1517 19.2112L26.3584 22.8891L34.2415 36.2278L27.5354 36.2768Z" fill="#8B8B8B"/>
</g>
<defs>
<clipPath id="clip0_140_313">
<rect width="37" height="38.275" fill="white"/>
</clipPath>
</defs>
</svg>
