<svg width="53" height="39" viewBox="0 0 53 39" fill="none" xmlns="http://www.w3.org/2000/svg">
<g id="&#208;&#188;&#209;&#150;&#209;&#129;&#209;&#130;&#208;&#190;2 1" clip-path="url(#clip0_140_567)">
<path id="Vector" d="M45.3338 18.0809H30.9491V0H10.3725V36.762H0V38.1309H53V36.762H45.3338V18.0809ZM29.6118 36.1723H11.7099V1.36898H29.6118V36.1723ZM43.9648 36.1723H31.2019V19.4604H43.9648V36.1723Z" fill="#7D7D80"/>
<path id="Vector_2" d="M19.7238 5.19141H15.3115V8.98239H19.7238V5.19141ZM19.0393 8.29792H15.996V5.89696H19.0393V8.29792Z" fill="#7D7D80"/>
<path id="Vector_3" d="M26.0634 5.19141H21.6406V8.98239H26.0634V5.19141ZM25.3684 8.29792H22.3356V5.89696H25.3684V8.29792Z" fill="#7D7D80"/>
<path id="Vector_4" d="M26.0634 10.1094H21.6406V13.8898H26.0634V10.1094ZM25.3684 13.2685H22.3356V10.857H25.3684V13.2685Z" fill="#7D7D80"/>
<path id="Vector_5" d="M26.0634 18.8286H21.6406V22.6091H26.0634V18.8286ZM25.3684 21.9246H22.3356V19.5131H25.3684V21.9246Z" fill="#7D7D80"/>
<path id="Vector_6" d="M26.0634 27.4741H21.6406V31.2546H26.0634V27.4741ZM25.3684 30.5701H22.3356V28.1586H25.3684V30.5701Z" fill="#7D7D80"/>
<path id="Vector_7" d="M19.7238 27.4741H15.3115V31.2546H19.7238V27.4741ZM19.0393 30.5701H15.996V28.1586H19.0393V30.5701Z" fill="#7D7D80"/>
<path id="Vector_8" d="M37.3205 20.9451H32.9082V24.7255H37.3205V20.9451ZM36.636 24.041H33.5927V21.6295H36.636V24.041Z" fill="#7D7D80"/>
<path id="Vector_9" d="M42.8595 27.0635H38.4473V30.8439H42.8595V27.0635ZM42.1751 30.1594H39.1317V27.748H42.1751V30.1594Z" fill="#7D7D80"/>
</g>
<defs>
<clipPath id="clip0_140_567">
<rect width="53" height="38.1415" fill="white"/>
</clipPath>
</defs>
</svg>
