<svg width="45" height="41" viewBox="0 0 45 41" fill="none" xmlns="http://www.w3.org/2000/svg">
<g id="&#209;&#132;&#208;&#181;&#209;&#128;&#208;&#188;&#208;&#176; 1" clip-path="url(#clip0_140_532)">
<g id="429, hotel , building, service, home">
<path id="Vector" d="M35.7312 14.4551C35.6858 14.4621 35.6393 14.4578 35.5959 14.4427C35.5525 14.4276 35.5134 14.4021 35.4821 14.3684L31.2269 12.2029C31.1386 12.1527 31.0669 12.0778 31.0207 11.9874C30.9745 11.8969 30.9559 11.7949 30.967 11.694V8.44567C30.977 8.31402 31.0338 8.19029 31.1272 8.09693C31.2205 8.00357 31.3443 7.94675 31.4759 7.93677H35.7312C35.8636 7.9445 35.9886 8.00061 36.0824 8.09442C36.1763 8.18823 36.2324 8.31323 36.2401 8.44567V13.8595C36.242 13.9461 36.2197 14.0315 36.1757 14.1061C36.1317 14.1807 36.0677 14.2416 35.991 14.2818C35.991 14.4551 35.8178 14.4551 35.7312 14.4551ZM32.0714 11.4775L35.3197 13.0908V9.18198H32.0714V11.4775Z" fill="#7D7D80" stroke="#7D7D80" stroke-width="0.3" stroke-miterlimit="10"/>
<path id="Vector_2" d="M35.9912 21.7744C36.0013 22.2063 36.1493 22.6236 36.4135 22.9654H37.9402C37.5366 22.9682 37.1403 22.8582 36.7959 22.6478C36.4515 22.4373 36.1728 22.1348 35.9912 21.7744Z" fill="#7D7D80" stroke="#7D7D80" stroke-width="0.3" stroke-miterlimit="10"/>
<path id="Vector_3" d="M9.18183 26.1163C9.1944 25.9422 9.16467 25.7676 9.09519 25.6074C8.98768 26.0666 8.72805 26.4759 8.35848 26.7688C7.98891 27.0617 7.53113 27.221 7.05957 27.2208H8.84617C9.0461 26.8854 9.16131 26.5063 9.18183 26.1163Z" fill="#7D7D80" stroke="#7D7D80" stroke-width="0.3" stroke-miterlimit="10"/>
<path id="Vector_4" d="M35.8181 29.8521C35.8181 30.0253 35.7314 30.1985 35.7314 30.3718C35.7555 30.7899 35.874 31.1971 36.0779 31.5628H37.8645C37.3814 31.547 36.9175 31.3699 36.5466 31.0599C36.1758 30.7499 35.9193 30.3247 35.8181 29.8521Z" fill="#7D7D80" stroke="#7D7D80" stroke-width="0.3" stroke-miterlimit="10"/>
<path id="Vector_5" d="M37.0096 35.7315H37.865C37.4885 35.7329 37.1171 35.6438 36.7822 35.4717L37.0096 35.7315Z" fill="#7D7D80" stroke="#7D7D80" stroke-width="0.3" stroke-miterlimit="10"/>
<path id="Vector_6" d="M37.0961 39.9867H37.9407C37.6117 39.992 37.2882 39.9017 37.0095 39.7268C36.9229 39.8134 37.0095 39.9 37.0961 39.9867Z" fill="#7D7D80" stroke="#7D7D80" stroke-width="0.3" stroke-miterlimit="10"/>
<path id="Vector_7" d="M7.05993 40.5823C6.35924 40.5823 5.68725 40.3039 5.19178 39.8085C4.69632 39.313 4.41797 38.641 4.41797 37.9403C4.41797 37.2396 4.69632 36.5676 5.19178 36.0722C5.68725 35.5767 6.35924 35.2983 7.05993 35.2983C7.18351 35.3163 7.29648 35.3782 7.37818 35.4726C7.45988 35.5671 7.50487 35.6878 7.50487 35.8127C7.50487 35.9375 7.45988 36.0582 7.37818 36.1527C7.29648 36.2471 7.18351 36.309 7.05993 36.327C6.62918 36.327 6.21609 36.4981 5.91151 36.8027C5.60692 37.1073 5.43578 37.5204 5.43578 37.9511C5.43578 38.3819 5.60692 38.795 5.91151 39.0996C6.21609 39.4042 6.62918 39.5753 7.05993 39.5753C7.18351 39.5932 7.29648 39.6551 7.37818 39.7496C7.45988 39.844 7.50487 39.9647 7.50487 40.0896C7.50487 40.2145 7.45988 40.3352 7.37818 40.4296C7.29648 40.5241 7.18351 40.5859 7.05993 40.6039V40.5823Z" fill="#7D7D80" stroke="#7D7D80" stroke-width="0.3" stroke-miterlimit="10"/>
<path id="Vector_8" d="M37.8651 40.5823C37.7913 40.593 37.716 40.5878 37.6444 40.5668C37.5728 40.5459 37.5066 40.5098 37.4502 40.461C37.3938 40.4123 37.3486 40.3519 37.3176 40.2841C37.2866 40.2163 37.2705 40.1426 37.2705 40.068C37.2705 39.9934 37.2866 39.9197 37.3176 39.8519C37.3486 39.7841 37.3938 39.7237 37.4502 39.6749C37.5066 39.6261 37.5728 39.5901 37.6444 39.5691C37.716 39.5482 37.7913 39.5429 37.8651 39.5537C38.2929 39.5537 38.7033 39.3837 39.0059 39.0811C39.3084 38.7786 39.4784 38.3682 39.4784 37.9403C39.4859 37.7264 39.4494 37.5133 39.371 37.3141C39.2926 37.1149 39.174 36.934 39.0227 36.7827C38.8713 36.6314 38.6905 36.5128 38.4913 36.4344C38.2921 36.356 38.079 36.3194 37.8651 36.327C37.7913 36.3377 37.716 36.3325 37.6444 36.3116C37.5728 36.2906 37.5066 36.2545 37.4502 36.2058C37.3938 36.157 37.3486 36.0966 37.3176 36.0288C37.2866 35.961 37.2705 35.8873 37.2705 35.8127C37.2705 35.7381 37.2866 35.6644 37.3176 35.5966C37.3486 35.5288 37.3938 35.4684 37.4502 35.4196C37.5066 35.3708 37.5728 35.3348 37.6444 35.3138C37.716 35.2929 37.7913 35.2876 37.8651 35.2984C38.5658 35.2984 39.2377 35.5767 39.7332 36.0722C40.2287 36.5677 40.507 37.2397 40.507 37.9403C40.507 38.641 40.2287 39.313 39.7332 39.8085C39.2377 40.304 38.5658 40.5823 37.8651 40.5823Z" fill="#7D7D80" stroke="#7D7D80" stroke-width="0.3" stroke-miterlimit="10"/>
<path id="Vector_9" d="M7.05993 36.3269C6.35924 36.3269 5.68725 36.0485 5.19178 35.5531C4.69632 35.0576 4.41797 34.3856 4.41797 33.6849C4.41797 32.9842 4.69632 32.3122 5.19178 31.8168C5.68725 31.3213 6.35924 31.043 7.05993 31.043C7.18351 31.0609 7.29648 31.1228 7.37818 31.2172C7.45988 31.3117 7.50487 31.4324 7.50487 31.5573C7.50487 31.6821 7.45988 31.8029 7.37818 31.8973C7.29648 31.9918 7.18351 32.0536 7.05993 32.0716C6.62918 32.0716 6.21609 32.2427 5.91151 32.5473C5.60692 32.8519 5.43578 33.265 5.43578 33.6957C5.43578 34.1265 5.60692 34.5396 5.91151 34.8442C6.21609 35.1488 6.62918 35.3199 7.05993 35.3199C7.18351 35.3379 7.29648 35.3998 7.37818 35.4942C7.45988 35.5886 7.50487 35.7093 7.50487 35.8342C7.50487 35.9591 7.45988 36.0798 7.37818 36.1742C7.29648 36.2687 7.18351 36.3306 7.05993 36.3485V36.3269Z" fill="#7D7D80" stroke="#7D7D80" stroke-width="0.3" stroke-miterlimit="10"/>
<path id="Vector_10" d="M37.8651 36.3269C37.7913 36.3377 37.716 36.3324 37.6444 36.3115C37.5728 36.2906 37.5066 36.2545 37.4502 36.2057C37.3938 36.1569 37.3486 36.0966 37.3176 36.0287C37.2866 35.9609 37.2705 35.8872 37.2705 35.8126C37.2705 35.7381 37.2866 35.6643 37.3176 35.5965C37.3486 35.5287 37.3938 35.4683 37.4502 35.4195C37.5066 35.3708 37.5728 35.3347 37.6444 35.3138C37.716 35.2928 37.7913 35.2876 37.8651 35.2983C38.2929 35.2983 38.7033 35.1283 39.0059 34.8258C39.3084 34.5232 39.4784 34.1129 39.4784 33.685C39.4859 33.4711 39.4494 33.2579 39.371 33.0587C39.2926 32.8596 39.174 32.6787 39.0227 32.5273C38.8713 32.376 38.6905 32.2574 38.4913 32.179C38.2921 32.1006 38.079 32.0641 37.8651 32.0716C37.7913 32.0824 37.716 32.0771 37.6444 32.0562C37.5728 32.0352 37.5066 31.9992 37.4502 31.9504C37.3938 31.9016 37.3486 31.8412 37.3176 31.7734C37.2866 31.7056 37.2705 31.6319 37.2705 31.5573C37.2705 31.4827 37.2866 31.4091 37.3176 31.3412C37.3486 31.2734 37.3938 31.213 37.4502 31.1643C37.5066 31.1155 37.5728 31.0794 37.6444 31.0584C37.716 31.0375 37.7913 31.0323 37.8651 31.043C38.5658 31.043 39.2377 31.3214 39.7332 31.8168C40.2287 32.3123 40.507 32.9843 40.507 33.685C40.507 34.3857 40.2287 35.0576 39.7332 35.5531C39.2377 36.0486 38.5658 36.3269 37.8651 36.3269Z" fill="#7D7D80" stroke="#7D7D80" stroke-width="0.3" stroke-miterlimit="10"/>
<path id="Vector_11" d="M7.06004 32.0717C6.69959 32.0948 6.33826 32.0438 5.99832 31.9218C5.65837 31.7997 5.34705 31.6093 5.08361 31.3622C4.82016 31.1151 4.61019 30.8166 4.46665 30.4852C4.3231 30.1537 4.24902 29.7964 4.24902 29.4352C4.24902 29.074 4.3231 28.7167 4.46665 28.3852C4.61019 28.0538 4.82016 27.7553 5.08361 27.5082C5.34705 27.2611 5.65837 27.0707 5.99832 26.9486C6.33826 26.8266 6.69959 26.7755 7.06004 26.7986C7.1917 26.8086 7.31542 26.8654 7.40878 26.9588C7.50214 27.0522 7.55897 27.1759 7.56894 27.3075C7.55897 27.4392 7.50214 27.5629 7.40878 27.6563C7.31542 27.7496 7.1917 27.8065 7.06004 27.8164C6.63216 27.8164 6.2218 27.9864 5.91924 28.289C5.61669 28.5915 5.44672 29.0019 5.44672 29.4298C5.43752 29.6441 5.47295 29.858 5.55078 30.0579C5.6286 30.2578 5.7471 30.4393 5.89879 30.591C6.05048 30.7427 6.23205 30.8612 6.43195 30.939C6.63185 31.0168 6.84572 31.0523 7.06004 31.0431C7.18362 31.0611 7.29658 31.1229 7.37828 31.2174C7.45998 31.3118 7.50497 31.4325 7.50497 31.5574C7.50497 31.6823 7.45998 31.803 7.37828 31.8974C7.29658 31.9919 7.18362 32.0537 7.06004 32.0717Z" fill="#7D7D80" stroke="#7D7D80" stroke-width="0.3" stroke-miterlimit="10"/>
<path id="Vector_12" d="M37.8651 32.0717C37.7913 32.0824 37.716 32.0771 37.6444 32.0562C37.5728 32.0353 37.5066 31.9992 37.4502 31.9504C37.3938 31.9017 37.3486 31.8413 37.3176 31.7735C37.2866 31.7056 37.2705 31.6319 37.2705 31.5574C37.2705 31.4828 37.2866 31.4091 37.3176 31.3413C37.3486 31.2735 37.3938 31.2131 37.4502 31.1643C37.5066 31.1155 37.5728 31.0794 37.6444 31.0585C37.716 31.0376 37.7913 31.0323 37.8651 31.0431C38.2929 31.0431 38.7033 30.8731 39.0059 30.5705C39.3084 30.2679 39.4784 29.8576 39.4784 29.4297C39.4859 29.2158 39.4494 29.0027 39.371 28.8035C39.2926 28.6043 39.174 28.4234 39.0227 28.2721C38.8713 28.1207 38.6905 28.0022 38.4913 27.9238C38.2921 27.8454 38.079 27.8088 37.8651 27.8164C37.7322 27.8067 37.6071 27.7503 37.512 27.6571C37.4168 27.564 37.3578 27.4401 37.3453 27.3075C37.3556 27.1741 37.414 27.049 37.5096 26.9554C37.6052 26.8618 37.7315 26.8061 37.8651 26.7986C38.5351 26.8415 39.1637 27.138 39.623 27.6277C40.0823 28.1175 40.338 28.7637 40.338 29.4351C40.338 30.1066 40.0823 30.7528 39.623 31.2425C39.1637 31.7322 38.5351 32.0287 37.8651 32.0717Z" fill="#7D7D80" stroke="#7D7D80" stroke-width="0.3" stroke-miterlimit="10"/>
<path id="Vector_13" d="M7.06004 27.8164C6.69959 27.8395 6.33826 27.7884 5.99832 27.6664C5.65837 27.5443 5.34705 27.3539 5.08361 27.1068C4.82016 26.8597 4.61019 26.5612 4.46665 26.2298C4.3231 25.8983 4.24902 25.541 4.24902 25.1798C4.24902 24.8186 4.3231 24.4612 4.46665 24.1298C4.61019 23.7984 4.82016 23.4999 5.08361 23.2528C5.34705 23.0057 5.65837 22.8153 5.99832 22.6932C6.33826 22.5712 6.69959 22.5201 7.06004 22.5433C7.1917 22.5532 7.31542 22.6101 7.40878 22.7034C7.50214 22.7968 7.55897 22.9205 7.56894 23.0522C7.55897 23.1838 7.50214 23.3075 7.40878 23.4009C7.31542 23.4943 7.1917 23.5511 7.06004 23.5611C6.84817 23.5611 6.63839 23.6028 6.44265 23.6839C6.24692 23.7649 6.06906 23.8838 5.91924 24.0336C5.76943 24.1834 5.65062 24.3613 5.56954 24.557C5.48847 24.7527 5.44672 24.9625 5.44672 25.1744C5.43763 25.3892 5.47306 25.6035 5.55078 25.804C5.62849 26.0044 5.74682 26.1866 5.89833 26.3392C6.04984 26.4917 6.23123 26.6112 6.43116 26.6903C6.63108 26.7693 6.84519 26.8062 7.06004 26.7985C7.1917 26.8085 7.31542 26.8653 7.40878 26.9587C7.50214 27.0521 7.55897 27.1758 7.56894 27.3074C7.55897 27.4391 7.50214 27.5628 7.40878 27.6562C7.31542 27.7496 7.1917 27.8064 7.06004 27.8164Z" fill="#7D7D80" stroke="#7D7D80" stroke-width="0.3" stroke-miterlimit="10"/>
<path id="Vector_14" d="M37.8645 27.8163C37.7316 27.8066 37.6066 27.7502 37.5114 27.657C37.4162 27.5639 37.3572 27.44 37.3447 27.3074C37.355 27.174 37.4134 27.0489 37.509 26.9553C37.6046 26.8617 37.7309 26.806 37.8645 26.7985C38.2933 26.7956 38.7037 26.6232 39.0059 26.319C39.3082 26.0147 39.4778 25.6032 39.4778 25.1743C39.4854 24.9604 39.4488 24.7473 39.3704 24.5481C39.292 24.3489 39.1734 24.1681 39.0221 24.0167C38.8707 23.8654 38.6899 23.7468 38.4907 23.6684C38.2915 23.59 38.0784 23.5535 37.8645 23.561C37.7316 23.5514 37.6066 23.4949 37.5114 23.4018C37.4162 23.3086 37.3572 23.1847 37.3447 23.0521C37.355 22.9187 37.4134 22.7936 37.509 22.7C37.6046 22.6064 37.7309 22.5507 37.8645 22.5432C38.5345 22.5862 39.1631 22.8826 39.6224 23.3724C40.0818 23.8621 40.3374 24.5083 40.3374 25.1798C40.3374 25.8512 40.0818 26.4974 39.6224 26.9871C39.1631 27.4769 38.5345 27.7733 37.8645 27.8163Z" fill="#7D7D80" stroke="#7D7D80" stroke-width="0.3" stroke-miterlimit="10"/>
<path id="Vector_15" d="M7.06004 23.561C6.69959 23.5841 6.33826 23.533 5.99832 23.411C5.65837 23.289 5.34705 23.0985 5.08361 22.8514C4.82016 22.6043 4.61019 22.3058 4.46665 21.9744C4.3231 21.643 4.24902 21.2856 4.24902 20.9244C4.24902 20.5632 4.3231 20.2059 4.46665 19.8744C4.61019 19.543 4.82016 19.2445 5.08361 18.9974C5.34705 18.7503 5.65837 18.5599 5.99832 18.4378C6.33826 18.3158 6.69959 18.2648 7.06004 18.2879C7.1917 18.2979 7.31542 18.3547 7.40878 18.448C7.50214 18.5414 7.55897 18.6651 7.56894 18.7968C7.55897 18.9284 7.50214 19.0522 7.40878 19.1455C7.31542 19.2389 7.1917 19.2957 7.06004 19.3057C6.62929 19.3057 6.2162 19.4768 5.91161 19.7814C5.60702 20.086 5.43588 20.4991 5.43588 20.9298C5.43588 21.3606 5.60702 21.7737 5.91161 22.0783C6.2162 22.3829 6.62929 22.554 7.06004 22.554C7.1917 22.564 7.31542 22.6208 7.40878 22.7141C7.50214 22.8075 7.55897 22.9312 7.56894 23.0629C7.55652 23.1926 7.49864 23.3138 7.40551 23.4049C7.31238 23.4961 7.19 23.5514 7.06004 23.561Z" fill="#7D7D80" stroke="#7D7D80" stroke-width="0.3" stroke-miterlimit="10"/>
<path id="Vector_16" d="M7.05956 23.561C6.9279 23.551 6.80418 23.4942 6.71082 23.4009C6.61745 23.3075 6.56063 23.1838 6.55065 23.0521C6.54474 22.9796 6.55323 22.9065 6.57564 22.8373C6.59805 22.768 6.63395 22.7038 6.68124 22.6485C6.72854 22.5931 6.78632 22.5477 6.85125 22.5148C6.91618 22.4818 6.98696 22.462 7.05956 22.4566C7.49031 22.4566 7.90343 22.2855 8.20802 21.9809C8.51261 21.6763 8.68372 21.2632 8.68372 20.8324C8.68372 20.4017 8.51261 19.9886 8.20802 19.684C7.90343 19.3794 7.49031 19.2083 7.05956 19.2083C6.92711 19.2005 6.80212 19.1444 6.70831 19.0506C6.61449 18.9568 6.55839 18.8318 6.55065 18.6993C6.54757 18.6317 6.55865 18.5642 6.58314 18.501C6.60762 18.4379 6.64499 18.3805 6.69287 18.3327C6.74076 18.2848 6.79809 18.2474 6.86123 18.2229C6.92437 18.1984 6.99191 18.1874 7.05956 18.1904C7.75563 18.1961 8.42159 18.4752 8.9138 18.9674C9.40601 19.4596 9.68506 20.1255 9.69072 20.8216C9.69398 21.5306 9.42117 22.213 8.93006 22.7243C8.43894 23.2356 7.76808 23.5357 7.05956 23.561Z" fill="#7D7D80" stroke="#7D7D80" stroke-width="0.3" stroke-miterlimit="10"/>
<path id="Vector_17" d="M37.8647 23.561C37.3417 23.5632 36.8299 23.41 36.394 23.121C35.9581 22.832 35.6178 22.4202 35.4161 21.9376C35.2145 21.4551 35.1607 20.9235 35.2614 20.4103C35.3621 19.8971 35.6128 19.4253 35.9819 19.0548C36.3509 18.6842 36.8217 18.4315 37.3345 18.3287C37.8472 18.2258 38.379 18.2775 38.8624 18.4772C39.3458 18.6768 39.759 19.0154 40.0498 19.4501C40.3406 19.8848 40.4958 20.3961 40.4958 20.919C40.493 21.617 40.2152 22.2857 39.7227 22.7803C39.2302 23.2748 38.5626 23.5553 37.8647 23.561ZM37.8647 19.3057C37.5426 19.3036 37.2271 19.3973 36.9583 19.5749C36.6896 19.7525 36.4797 20.0061 36.3555 20.3033C36.2312 20.6005 36.1981 20.928 36.2604 21.244C36.3228 21.5601 36.4777 21.8505 36.7055 22.0783C36.9333 22.3061 37.2236 22.461 37.5397 22.5233C37.8557 22.5856 38.1832 22.5526 38.4804 22.4283C38.7777 22.304 39.0312 22.0942 39.2088 21.8254C39.3865 21.5567 39.4802 21.2412 39.478 20.919C39.4856 20.7051 39.449 20.492 39.3706 20.2928C39.2922 20.0936 39.1737 19.9127 39.0223 19.7614C38.871 19.6101 38.6901 19.4915 38.4909 19.4131C38.2918 19.3347 38.0786 19.2981 37.8647 19.3057Z" fill="#7D7D80" stroke="#7D7D80" stroke-width="0.3" stroke-miterlimit="10"/>
<path id="Vector_18" d="M43.2248 19.3057H1.70045C1.58035 19.3033 1.46461 19.2603 1.37216 19.1836C1.27972 19.1069 1.21604 19.001 1.19155 18.8834C1.16702 18.8282 1.15401 18.7685 1.15335 18.7081C1.15269 18.6477 1.1644 18.5877 1.18771 18.532C1.21103 18.4762 1.24548 18.4258 1.28896 18.3838C1.33244 18.3419 1.38402 18.3092 1.44056 18.2879L22.2082 5.52203C22.3016 5.47921 22.4031 5.45703 22.5059 5.45703C22.6087 5.45703 22.7102 5.47921 22.8037 5.52203L43.5604 18.2879C43.6522 18.3556 43.7245 18.4463 43.7701 18.5508C43.8158 18.6554 43.833 18.7701 43.8203 18.8834C43.647 19.1325 43.4738 19.3057 43.2248 19.3057ZM3.57362 18.2229H41.2649L22.5005 6.62644L3.57362 18.2229Z" fill="#7D7D80" stroke="#7D7D80" stroke-width="0.3" stroke-miterlimit="10"/>
<path id="Vector_19" d="M22.5003 16.0682C21.8578 16.0682 21.2298 15.8777 20.6956 15.5207C20.1614 15.1638 19.7451 14.6565 19.4992 14.0629C19.2534 13.4694 19.189 12.8162 19.3144 12.1861C19.4397 11.556 19.7491 10.9772 20.2034 10.523C20.6577 10.0687 21.2364 9.75929 21.8666 9.63395C22.4967 9.50861 23.1498 9.57294 23.7433 9.8188C24.3369 10.0647 24.8442 10.481 25.2011 11.0152C25.5581 11.5494 25.7486 12.1774 25.7486 12.8198C25.7486 13.6814 25.4063 14.5076 24.7972 15.1168C24.188 15.7259 23.3618 16.0682 22.5003 16.0682ZM22.5003 10.7951C22.072 10.7951 21.6533 10.9221 21.2972 11.16C20.941 11.398 20.6635 11.7362 20.4996 12.1319C20.3357 12.5276 20.2928 12.963 20.3763 13.3831C20.4599 13.8031 20.6661 14.189 20.969 14.4919C21.2719 14.7947 21.6577 15.001 22.0778 15.0846C22.4979 15.1681 22.9333 15.1252 23.329 14.9613C23.7247 14.7974 24.0629 14.5199 24.3008 14.1637C24.5388 13.8076 24.6658 13.3889 24.6658 12.9606C24.6733 12.6742 24.6223 12.3893 24.5161 12.1232C24.4099 11.8571 24.2507 11.6154 24.0481 11.4128C23.8455 11.2102 23.6038 11.051 23.3377 10.9448C23.0716 10.8386 22.7867 10.7876 22.5003 10.7951Z" fill="#7D7D80" stroke="#7D7D80" stroke-width="0.3" stroke-miterlimit="10"/>
<path id="Vector_20" d="M7.06013 40.5823C6.93656 40.5643 6.82359 40.5024 6.74189 40.408C6.66019 40.3135 6.61523 40.1928 6.61523 40.0679C6.61523 39.9431 6.66019 39.8224 6.74189 39.7279C6.82359 39.6335 6.93656 39.5716 7.06013 39.5536C7.48801 39.5536 7.89837 39.3837 8.20093 39.0811C8.50349 38.7785 8.67349 38.3682 8.67349 37.9403C8.68105 37.7264 8.64449 37.5132 8.56609 37.3141C8.48769 37.1149 8.36913 36.934 8.21778 36.7827C8.06643 36.6313 7.88554 36.5127 7.68637 36.4343C7.48721 36.3559 7.27404 36.3194 7.06013 36.327C6.93656 36.309 6.82359 36.2471 6.74189 36.1527C6.66019 36.0582 6.61523 35.9375 6.61523 35.8127C6.61523 35.6878 6.66019 35.5671 6.74189 35.4726C6.82359 35.3782 6.93656 35.3163 7.06013 35.2983C7.75807 35.304 8.42566 35.5846 8.91817 36.0791C9.41069 36.5736 9.68847 37.2424 9.69129 37.9403C9.67491 38.634 9.39274 39.2949 8.90311 39.7865C8.41347 40.2782 7.75374 40.563 7.06013 40.5823Z" fill="#7D7D80" stroke="#7D7D80" stroke-width="0.3" stroke-miterlimit="10"/>
<path id="Vector_21" d="M37.8646 40.5823C37.1639 40.5823 36.4919 40.3039 35.9965 39.8085C35.501 39.313 35.2227 38.641 35.2227 37.9403C35.2227 37.2396 35.501 36.5676 35.9965 36.0722C36.4919 35.5767 37.1639 35.2983 37.8646 35.2983C37.9882 35.3163 38.1012 35.3782 38.1829 35.4726C38.2646 35.5671 38.3095 35.6878 38.3095 35.8127C38.3095 35.9375 38.2646 36.0582 38.1829 36.1527C38.1012 36.2471 37.9882 36.309 37.8646 36.327C37.4339 36.327 37.0207 36.4981 36.7162 36.8027C36.4116 37.1073 36.2405 37.5204 36.2405 37.9511C36.2405 38.3819 36.4116 38.795 36.7162 39.0996C37.0207 39.4042 37.4339 39.5753 37.8646 39.5753C37.9963 39.5852 38.12 39.6421 38.2134 39.7354C38.3067 39.8288 38.3635 39.9525 38.3735 40.0842C38.3735 40.1505 38.3603 40.2162 38.3346 40.2773C38.3089 40.3385 38.2712 40.3939 38.2238 40.4402C38.1764 40.4866 38.1202 40.5231 38.0586 40.5475C37.9969 40.5719 37.9309 40.5837 37.8646 40.5823Z" fill="#7D7D80" stroke="#7D7D80" stroke-width="0.3" stroke-miterlimit="10"/>
<path id="Vector_22" d="M14.4655 36.327H6.97277C6.84919 36.309 6.73623 36.2472 6.65453 36.1527C6.57283 36.0583 6.52787 35.9376 6.52787 35.8127C6.52787 35.6878 6.57283 35.5671 6.65453 35.4726C6.73623 35.3782 6.84919 35.3163 6.97277 35.2984C7.18504 35.2998 7.39549 35.2591 7.59188 35.1785C7.78826 35.0979 7.96667 34.9792 8.11677 34.8291C8.26687 34.679 8.38564 34.5005 8.46621 34.3041C8.54678 34.1077 8.58753 33.8973 8.58609 33.6851C8.59366 33.4712 8.5571 33.258 8.4787 33.0588C8.4003 32.8597 8.28173 32.6788 8.13039 32.5274C7.97904 32.3761 7.79817 32.2575 7.59901 32.1791C7.39985 32.1007 7.18667 32.0641 6.97277 32.0717C6.84111 32.0617 6.71739 32.0049 6.62403 31.9115C6.53067 31.8182 6.47385 31.6945 6.46387 31.5628C6.47172 31.4074 6.53697 31.2604 6.64699 31.1504C6.75702 31.0404 6.90398 30.9751 7.05938 30.9673C7.75545 30.9729 8.42141 31.252 8.91362 31.7442C9.40583 32.2364 9.68488 32.9023 9.69054 33.5984C9.70636 34.1813 9.52727 34.7529 9.18163 35.2226H14.5413C14.6749 35.23 14.8013 35.2858 14.8969 35.3794C14.9924 35.473 15.0508 35.5981 15.0611 35.7315C15.0487 35.8853 14.982 36.0297 14.8729 36.1388C14.7638 36.2479 14.6194 36.3146 14.4655 36.327Z" fill="#7D7D80" stroke="#7D7D80" stroke-width="0.3" stroke-miterlimit="10"/>
<path id="Vector_23" d="M37.8644 36.3269H22.9654C22.8418 36.3089 22.7289 36.247 22.6472 36.1526C22.5655 36.0582 22.5205 35.9375 22.5205 35.8126C22.5205 35.6877 22.5655 35.567 22.6472 35.4725C22.7289 35.3781 22.8418 35.3162 22.9654 35.2983H35.7313C35.4429 34.8981 35.2703 34.4262 35.2324 33.9344C35.1945 33.4426 35.2928 32.9499 35.5165 32.5103C35.7403 32.0707 36.0807 31.7012 36.5006 31.4424C36.9205 31.1835 37.4036 31.0453 37.8968 31.043C38.0204 31.0609 38.1334 31.1228 38.2151 31.2172C38.2968 31.3117 38.3417 31.4324 38.3417 31.5573C38.3417 31.6821 38.2968 31.8029 38.2151 31.8973C38.1334 31.9918 38.0204 32.0536 37.8968 32.0716C37.4661 32.0716 37.053 32.2427 36.7484 32.5473C36.4438 32.8519 36.2727 33.265 36.2727 33.6957C36.2727 34.1265 36.4438 34.5396 36.7484 34.8442C37.053 35.1488 37.4661 35.3199 37.8968 35.3199C38.0294 35.3324 38.1533 35.3914 38.2465 35.4866C38.3396 35.5817 38.3961 35.7068 38.4057 35.8396C38.4045 35.9079 38.3893 35.9753 38.3609 36.0374C38.3326 36.0996 38.2917 36.1552 38.241 36.2009C38.1902 36.2466 38.1305 36.2814 38.0658 36.303C38.001 36.3247 37.9324 36.3328 37.8644 36.3269Z" fill="#7D7D80" stroke="#7D7D80" stroke-width="0.3" stroke-miterlimit="10"/>
<path id="Vector_24" d="M7.05956 32.0716C6.9279 32.0617 6.80418 32.0048 6.71082 31.9115C6.61745 31.8181 6.56063 31.6944 6.55065 31.5627C6.54474 31.4902 6.55323 31.4171 6.57564 31.3479C6.59805 31.2786 6.63395 31.2145 6.68124 31.1591C6.72854 31.1038 6.78632 31.0583 6.85125 31.0254C6.91618 30.9924 6.98696 30.9727 7.05956 30.9672C7.48843 30.9644 7.89877 30.792 8.20102 30.4877C8.50327 30.1834 8.67292 29.7719 8.67291 29.3431C8.68048 29.1292 8.64392 28.916 8.56552 28.7168C8.48712 28.5177 8.36855 28.3368 8.21721 28.1854C8.06586 28.0341 7.88496 27.9155 7.6858 27.8371C7.48664 27.7587 7.27346 27.7222 7.05956 27.7297C6.9279 27.7198 6.80418 27.6629 6.71082 27.5696C6.61745 27.4762 6.56063 27.3525 6.55065 27.2208C6.54757 27.1532 6.55865 27.0856 6.58314 27.0225C6.60762 26.9593 6.64499 26.902 6.69287 26.8541C6.74076 26.8062 6.79809 26.7689 6.86123 26.7444C6.92437 26.7199 6.99191 26.7089 7.05956 26.7119C7.75563 26.7176 8.42159 26.9966 8.9138 27.4888C9.40601 27.981 9.68506 28.647 9.69072 29.3431C9.69117 30.0502 9.41711 30.7298 8.92629 31.2388C8.43547 31.7478 7.7662 32.0464 7.05956 32.0716Z" fill="#7D7D80" stroke="#7D7D80" stroke-width="0.3" stroke-miterlimit="10"/>
<path id="Vector_25" d="M37.8644 32.0717H22.9654C22.8418 32.0537 22.7289 31.9918 22.6472 31.8974C22.5655 31.803 22.5205 31.6822 22.5205 31.5574C22.5205 31.4325 22.5655 31.3118 22.6472 31.2173C22.7289 31.1229 22.8418 31.061 22.9654 31.0431H35.7313C35.4419 30.6439 35.2684 30.1725 35.2301 29.6809C35.1917 29.1894 35.29 28.6968 35.5141 28.2576C35.7382 27.8184 36.0793 27.4497 36.4998 27.1922C36.9203 26.9347 37.4038 26.7985 37.8968 26.7986C38.0285 26.8086 38.1522 26.8654 38.2456 26.9587C38.3389 27.0521 38.3958 27.1758 38.4057 27.3075C38.3958 27.4391 38.3389 27.5629 38.2456 27.6562C38.1522 27.7496 38.0285 27.8064 37.8968 27.8164C37.468 27.8164 37.0565 27.986 36.7522 28.2883C36.4479 28.5905 36.2755 29.0008 36.2727 29.4297C36.265 29.6446 36.3019 29.8587 36.3809 30.0586C36.46 30.2585 36.5795 30.4399 36.7321 30.5915C36.8846 30.743 37.0668 30.8613 37.2673 30.939C37.4677 31.0167 37.682 31.0522 37.8968 31.0431C38.0294 31.0555 38.1533 31.1145 38.2465 31.2097C38.3396 31.3049 38.3961 31.43 38.4057 31.5628C38.4075 31.6329 38.3945 31.7026 38.3675 31.7673C38.3405 31.8321 38.3001 31.8904 38.249 31.9384C38.1978 31.9865 38.1372 32.0232 38.0709 32.0461C38.0046 32.0691 37.9342 32.0778 37.8644 32.0717Z" fill="#7D7D80" stroke="#7D7D80" stroke-width="0.3" stroke-miterlimit="10"/>
<path id="Vector_26" d="M26.2031 27.8164H22.9548C22.8329 27.7948 22.7218 27.7329 22.6393 27.6406C22.5569 27.5483 22.5078 27.431 22.5 27.3075C22.51 27.1758 22.5668 27.0521 22.6602 26.9587C22.7535 26.8654 22.8772 26.8086 23.0089 26.7986H26.2572C26.3897 26.8063 26.5147 26.8624 26.6085 26.9562C26.7023 27.05 26.7584 27.175 26.7661 27.3075C26.7551 27.4482 26.6906 27.5794 26.5859 27.674C26.4812 27.7687 26.3442 27.8196 26.2031 27.8164Z" fill="#7D7D80" stroke="#7D7D80" stroke-width="0.3" stroke-miterlimit="10"/>
<path id="Vector_27" d="M37.8644 27.8163C37.3712 27.8139 36.8881 27.6757 36.4682 27.4169C36.0483 27.1581 35.7079 26.7886 35.4841 26.349C35.2604 25.9094 35.1621 25.4166 35.2 24.9248C35.2379 24.433 35.4105 23.9612 35.6989 23.561H9.18182C9.52893 24.0258 9.70832 24.5945 9.69072 25.1743C9.70654 25.7573 9.52745 26.3288 9.18182 26.7985H14.5415C14.6751 26.806 14.8014 26.8617 14.897 26.9553C14.9926 27.0489 15.051 27.174 15.0613 27.3074C15.0488 27.44 14.9897 27.5639 14.8946 27.657C14.7994 27.7502 14.6743 27.8066 14.5415 27.8163H7.05956C6.9279 27.8063 6.80418 27.7495 6.71082 27.6561C6.61745 27.5628 6.56063 27.439 6.55065 27.3074C6.54474 27.2348 6.55323 27.1618 6.57564 27.0925C6.59805 27.0233 6.63395 26.9591 6.68124 26.9038C6.72854 26.8484 6.78632 26.803 6.85125 26.77C6.91618 26.7371 6.98696 26.7173 7.05956 26.7119C7.48843 26.709 7.89877 26.5366 8.20102 26.2323C8.50327 25.9281 8.67292 25.5166 8.67291 25.0877C8.68048 24.8738 8.64392 24.6606 8.56552 24.4615C8.48712 24.2623 8.36855 24.0814 8.21721 23.9301C8.06586 23.7787 7.88496 23.6602 7.6858 23.5818C7.48664 23.5034 7.27346 23.4668 7.05956 23.4744C6.9279 23.4644 6.80418 23.4076 6.71082 23.3142C6.61745 23.2208 6.56063 23.0971 6.55065 22.9655C6.54757 22.8978 6.55865 22.8303 6.58314 22.7671C6.60762 22.704 6.64499 22.6467 6.69287 22.5988C6.74076 22.5509 6.79809 22.5135 6.86123 22.489C6.92437 22.4646 6.99191 22.4535 7.05956 22.4566H37.9402C38.0738 22.464 38.2001 22.5197 38.2957 22.6133C38.3913 22.707 38.4497 22.8321 38.4599 22.9655C38.4475 23.0981 38.3885 23.222 38.2933 23.3151C38.1982 23.4083 38.0731 23.4647 37.9402 23.4744C37.5124 23.4744 37.102 23.6444 36.7994 23.9469C36.4969 24.2495 36.3269 24.6598 36.3269 25.0877C36.3194 25.3021 36.356 25.5157 36.4342 25.7154C36.5125 25.9152 36.6309 26.0967 36.7821 26.2489C36.9333 26.4011 37.114 26.5207 37.3132 26.6003C37.5124 26.6799 37.7258 26.7179 37.9402 26.7119C38.0738 26.7194 38.2001 26.7751 38.2957 26.8687C38.3913 26.9623 38.4497 27.0874 38.4599 27.2208C38.4476 27.3746 38.3809 27.519 38.2718 27.6281C38.1626 27.7372 38.0182 27.8039 37.8644 27.8163Z" fill="#7D7D80" stroke="#7D7D80" stroke-width="0.3" stroke-miterlimit="10"/>
<path id="Vector_28" d="M22.9658 40.5821C22.8332 40.5697 22.7093 40.5106 22.6161 40.4155C22.523 40.3203 22.4665 40.1952 22.4569 40.0624V26.7118H14.9749V39.9866C14.9569 40.1102 14.8951 40.2231 14.8006 40.3048C14.7062 40.3865 14.5855 40.4315 14.4606 40.4315C14.3357 40.4315 14.215 40.3865 14.1206 40.3048C14.0261 40.2231 13.9643 40.1102 13.9463 39.9866V26.2246C13.9563 26.0901 14.0143 25.9636 14.1097 25.8682C14.205 25.7728 14.3315 25.7148 14.466 25.7048H22.9658C23.1003 25.7148 23.2268 25.7728 23.3221 25.8682C23.4175 25.9636 23.4755 26.0901 23.4855 26.2246V40.084C23.583 40.3006 23.3123 40.5821 22.9658 40.5821Z" fill="#7D7D80" stroke="#7D7D80" stroke-width="0.3" stroke-miterlimit="10"/>
<path id="Vector_29" d="M44.2422 40.5824H0.671461C0.547885 40.5644 0.434917 40.5025 0.353219 40.4081C0.27152 40.3136 0.226562 40.1929 0.226562 40.068C0.226562 39.9432 0.27152 39.8225 0.353219 39.728C0.434917 39.6336 0.547885 39.5717 0.671461 39.5537H44.3288C44.4605 39.5637 44.5842 39.6205 44.6776 39.7139C44.7709 39.8072 44.8278 39.931 44.8377 40.0626C44.824 40.2091 44.7545 40.3446 44.6437 40.4414C44.5329 40.5381 44.3891 40.5886 44.2422 40.5824Z" fill="#7D7D80" stroke="#7D7D80" stroke-width="0.3" stroke-miterlimit="10"/>
<path id="Vector_30" d="M7.0601 9.69075C6.11783 9.69075 5.19674 9.41132 4.41328 8.88783C3.62981 8.36433 3.01915 7.62025 2.65856 6.74971C2.29797 5.87917 2.20361 4.92124 2.38744 3.99708C2.57127 3.07292 3.02502 2.22402 3.69131 1.55774C4.35759 0.891452 5.20649 0.437731 6.13065 0.253904C7.05481 0.0700761 8.01273 0.164402 8.88328 0.524993C9.75382 0.885584 10.4979 1.49624 11.0214 2.27971C11.5449 3.06317 11.8243 3.98426 11.8243 4.92653C11.8257 5.55257 11.7035 6.17276 11.4646 6.75143C11.2257 7.33009 10.8748 7.85585 10.4321 8.29853C9.98941 8.74121 9.46363 9.09209 8.88496 9.33101C8.3063 9.56992 7.68614 9.69218 7.0601 9.69075ZM7.0601 1.18015C6.31913 1.18015 5.59481 1.39989 4.97872 1.81154C4.36263 2.2232 3.88244 2.8083 3.59888 3.49287C3.31533 4.17743 3.24116 4.93069 3.38572 5.65742C3.53027 6.38415 3.88705 7.05169 4.411 7.57563C4.93494 8.09957 5.60251 8.45639 6.32924 8.60094C7.05597 8.7455 7.80923 8.6713 8.49379 8.38774C9.17836 8.10419 9.76346 7.624 10.1751 7.00791C10.5868 6.39182 10.8065 5.6675 10.8065 4.92653C10.798 3.93555 10.4006 2.98756 9.69982 2.28681C8.99906 1.58606 8.05108 1.18863 7.0601 1.18015Z" fill="#7D7D80" stroke="#7D7D80" stroke-width="0.3" stroke-miterlimit="10"/>
</g>
</g>
<defs>
<clipPath id="clip0_140_532">
<rect width="45" height="40.7447" fill="white"/>
</clipPath>
</defs>
</svg>
