<svg width="47" height="44" viewBox="0 0 47 44" fill="none" xmlns="http://www.w3.org/2000/svg">
<g id="&#208;&#187;&#209;&#150;&#209;&#129; 1" clip-path="url(#clip0_140_478)">
<path id="Vector" d="M15.6043 38.1102H19.1678V37.335H14.8291V42.7989H15.6043V38.1102Z" fill="#7D7D80" stroke="#7D7D80" stroke-width="0.3" stroke-miterlimit="10"/>
<path id="Vector_2" d="M28.6199 38.1977H32.1834V37.335H27.8447V42.7989H28.6199V38.1977Z" fill="#7D7D80" stroke="#7D7D80" stroke-width="0.3" stroke-miterlimit="10"/>
<path id="Vector_3" d="M37.2097 11.0279C36.5495 11.0353 35.9019 10.8467 35.3488 10.4861C34.7958 10.1254 34.3621 9.60887 34.1026 9.00174C33.8431 8.39462 33.7695 7.72416 33.891 7.07519C34.0126 6.42622 34.3238 5.82788 34.7854 5.35579C35.247 4.88371 35.8382 4.55909 36.4843 4.423C37.1303 4.28692 37.8023 4.34546 38.4151 4.59124C39.0279 4.83702 39.554 5.25899 39.927 5.80379C40.3 6.3486 40.5031 6.9918 40.5105 7.65201C40.5188 8.09131 40.4397 8.52785 40.2777 8.93626C40.1156 9.34468 39.874 9.71683 39.5668 10.031C39.2596 10.3452 38.8931 10.5951 38.4884 10.7662C38.0837 10.9374 37.649 11.0263 37.2097 11.0279ZM37.2097 5.47641C36.6357 5.48605 36.0879 5.71839 35.682 6.12431C35.276 6.53024 35.0438 7.07802 35.0341 7.65201C35.0429 8.23335 35.2727 8.7895 35.6768 9.20752C36.0809 9.62555 36.629 9.87407 37.2097 9.90259C37.7945 9.88946 38.3502 9.64536 38.7556 9.22363C39.1609 8.8019 39.3828 8.23686 39.3727 7.65201C39.3778 7.36598 39.3254 7.08182 39.2186 6.81641C39.1118 6.551 38.9529 6.30971 38.7512 6.10684C38.5495 5.90397 38.3091 5.74366 38.0444 5.63537C37.7796 5.52708 37.4957 5.47302 37.2097 5.47641Z" fill="#7D7D80" stroke="#7D7D80" stroke-width="0.3" stroke-miterlimit="10"/>
<path id="Vector_4" d="M37.2097 2.70071C37.0733 2.69188 36.9448 2.63372 36.8482 2.53709C36.7516 2.44045 36.6934 2.31197 36.6846 2.17559V0.700167C36.6846 0.560891 36.7399 0.427343 36.8384 0.32886C36.9369 0.230377 37.0705 0.175049 37.2097 0.175049C37.349 0.175049 37.4826 0.230377 37.581 0.32886C37.6795 0.427343 37.7348 0.560891 37.7348 0.700167V2.12556C37.7384 2.27066 37.6858 2.41152 37.5879 2.5187C37.49 2.62588 37.3545 2.69107 37.2097 2.70071Z" fill="#7D7D80" stroke="#7D7D80" stroke-width="0.3" stroke-miterlimit="10"/>
<path id="Vector_5" d="M33.2966 4.26363C33.2288 4.26269 33.1622 4.24647 33.1016 4.21616C33.0409 4.18585 32.9879 4.14225 32.9465 4.0886L31.8212 3.05081C31.7592 3.00554 31.7088 2.94628 31.674 2.87784C31.6392 2.8094 31.6211 2.73371 31.6211 2.65695C31.6211 2.58018 31.6392 2.5045 31.674 2.43606C31.7088 2.36762 31.7592 2.30835 31.8212 2.26309C31.9838 2.00052 32.3339 2.00052 32.5964 2.26309L33.7217 3.3134C33.9843 3.47595 33.9843 3.82603 33.7217 4.0886C33.6715 4.15137 33.6061 4.20035 33.5317 4.23097C33.4574 4.26158 33.3765 4.27281 33.2966 4.26363Z" fill="#7D7D80" stroke="#7D7D80" stroke-width="0.3" stroke-miterlimit="10"/>
<path id="Vector_6" d="M42.1611 13.2034C42.0933 13.2025 42.0266 13.1863 41.966 13.156C41.9054 13.1257 41.8524 13.0821 41.811 13.0284L40.7607 11.9906C40.68 11.8752 40.6367 11.7377 40.6367 11.5968C40.6367 11.4559 40.68 11.3184 40.7607 11.2029C40.8739 11.1167 41.0123 11.0701 41.1545 11.0701C41.2968 11.0701 41.4352 11.1167 41.5484 11.2029L42.5862 12.2532C42.6713 12.3645 42.7175 12.5007 42.7175 12.6408C42.7175 12.7809 42.6713 12.9171 42.5862 13.0284C42.4699 13.1356 42.3191 13.1977 42.1611 13.2034Z" fill="#7D7D80" stroke="#7D7D80" stroke-width="0.3" stroke-miterlimit="10"/>
<path id="Vector_7" d="M44.2366 8.16462H42.7612C42.6863 8.17628 42.6098 8.1716 42.5369 8.15088C42.464 8.13017 42.3964 8.09391 42.3388 8.04461C42.2813 7.99532 42.235 7.93413 42.2034 7.86528C42.1717 7.79642 42.1553 7.72155 42.1553 7.64576C42.1553 7.56996 42.1717 7.49505 42.2034 7.4262C42.235 7.35735 42.2813 7.29616 42.3388 7.24686C42.3964 7.19756 42.464 7.16131 42.5369 7.1406C42.6098 7.11988 42.6863 7.1152 42.7612 7.12686H44.2366C44.373 7.13569 44.5015 7.19384 44.5981 7.29048C44.6947 7.38711 44.7529 7.51564 44.7617 7.65202C44.8493 7.90208 44.5492 8.16462 44.2366 8.16462Z" fill="#7D7D80" stroke="#7D7D80" stroke-width="0.3" stroke-miterlimit="10"/>
<path id="Vector_8" d="M41.1112 4.26363C41.0434 4.26269 40.9767 4.24647 40.9161 4.21616C40.8555 4.18585 40.8025 4.14226 40.7611 4.0886C40.7015 4.04309 40.6532 3.98443 40.6199 3.9172C40.5866 3.84998 40.5693 3.77601 40.5693 3.701C40.5693 3.626 40.5866 3.55199 40.6199 3.48477C40.6532 3.41754 40.7015 3.35891 40.7611 3.3134L41.8114 2.1756C41.9158 2.0728 42.0568 2.01569 42.2034 2.01686C42.3499 2.01804 42.49 2.0774 42.5928 2.18185C42.6956 2.28631 42.7527 2.42729 42.7515 2.57384C42.7504 2.72039 42.691 2.86051 42.5866 2.96331L41.5488 4.0886C41.4613 4.26365 41.2862 4.26363 41.1112 4.26363Z" fill="#7D7D80" stroke="#7D7D80" stroke-width="0.3" stroke-miterlimit="10"/>
<path id="Vector_9" d="M35.3842 16.1542H33.2211C33.0847 16.1454 32.9562 16.0873 32.8595 15.9906C32.7629 15.894 32.7047 15.7655 32.6959 15.6291C32.705 15.494 32.7636 15.367 32.8605 15.2724C32.9574 15.1778 33.0858 15.1223 33.2211 15.1165H34.2588L30.0077 9.99011L25.669 15.1165H26.7068C26.8421 15.1223 26.9705 15.1778 27.0673 15.2724C27.1642 15.367 27.2229 15.494 27.232 15.6291C27.2231 15.7655 27.165 15.894 27.0683 15.9906C26.9717 16.0873 26.8432 16.1454 26.7068 16.1542H24.5438C24.4334 16.1515 24.3261 16.1178 24.2341 16.0569C24.1421 15.996 24.069 15.9104 24.0234 15.8099C23.9777 15.7095 23.9613 15.5982 23.9759 15.4888C23.9905 15.3794 24.0357 15.2764 24.1061 15.1915L29.5701 8.68975C29.6884 8.57809 29.845 8.51587 30.0077 8.51587C30.1704 8.51587 30.327 8.57809 30.4453 8.68975L35.9093 15.1915C35.9886 15.2701 36.0401 15.3725 36.0559 15.4831C36.0717 15.5937 36.051 15.7064 35.9968 15.8041C35.938 15.9143 35.8493 16.0056 35.7409 16.0675C35.6325 16.1294 35.5089 16.1595 35.3842 16.1542Z" fill="#7D7D80" stroke="#7D7D80" stroke-width="0.3" stroke-miterlimit="10"/>
<path id="Vector_10" d="M46.3248 37.8475H33.2964C33.2215 37.8591 33.1449 37.8545 33.072 37.8337C32.9991 37.813 32.9316 37.7767 32.874 37.7274C32.8164 37.6781 32.7702 37.617 32.7385 37.5481C32.7069 37.4793 32.6904 37.4044 32.6904 37.3286C32.6904 37.2528 32.7069 37.1779 32.7385 37.109C32.7702 37.0402 32.8164 36.979 32.874 36.9297C32.9316 36.8804 32.9991 36.8442 33.072 36.8235C33.1449 36.8027 33.2215 36.798 33.2964 36.8097H45.012L37.2099 28.3825C37.1211 28.2771 37.0751 28.1422 37.0809 28.0045C37.0868 27.8668 37.1441 27.7364 37.2416 27.6389C37.339 27.5415 37.4695 27.4841 37.6072 27.4783C37.7448 27.4724 37.8797 27.5184 37.9851 27.6073L46.6624 36.8972C46.7407 36.9739 46.7917 37.0741 46.8075 37.1825C46.8233 37.2909 46.8031 37.4016 46.75 37.4974C46.7299 37.5956 46.6767 37.6839 46.5993 37.7477C46.522 37.8114 46.4251 37.8466 46.3248 37.8475Z" fill="#7D7D80" stroke="#7D7D80" stroke-width="0.3" stroke-miterlimit="10"/>
<path id="Vector_11" d="M23.4936 23.4436C23.3351 23.4402 23.1835 23.3778 23.0685 23.2686C23.0212 23.2117 22.9859 23.1459 22.9646 23.075C22.9433 23.0041 22.9366 22.9297 22.9448 22.8561C22.9529 22.7826 22.9759 22.7115 23.0122 22.647C23.0485 22.5825 23.0974 22.526 23.156 22.4809L25.3191 20.6679C25.376 20.6206 25.4419 20.5852 25.5127 20.564C25.5836 20.5427 25.658 20.536 25.7316 20.5441C25.8051 20.5523 25.8762 20.5753 25.9407 20.6116C26.0052 20.6479 26.0617 20.6968 26.1068 20.7554C26.1953 20.8709 26.2355 21.0161 26.2192 21.1606C26.2029 21.3052 26.1312 21.4378 26.0193 21.5306L23.8437 23.3811C23.7378 23.442 23.614 23.4641 23.4936 23.4436Z" fill="#7D7D80" stroke="#7D7D80" stroke-width="0.3" stroke-miterlimit="10"/>
<path id="Vector_12" d="M37.6473 28.5575C37.5785 28.561 37.5097 28.5502 37.4452 28.5258C37.3808 28.5014 37.322 28.464 37.2727 28.4159C37.2234 28.3677 37.1846 28.31 37.1587 28.2461C37.1328 28.1823 37.1203 28.1138 37.1221 28.0449C37.1256 27.8979 37.1798 27.7566 37.2755 27.6449C37.3712 27.5333 37.5025 27.4581 37.6473 27.4322L40.6856 27.1696L34.0838 21.5306C34.0256 21.4866 33.9769 21.4313 33.9407 21.3679C33.9045 21.3045 33.8817 21.2344 33.8735 21.1618C33.8653 21.0893 33.872 21.0159 33.8931 20.946C33.9142 20.8761 33.9493 20.8113 33.9963 20.7554C34.0414 20.6968 34.0979 20.6479 34.1624 20.6116C34.2269 20.5753 34.298 20.5523 34.3715 20.5441C34.4451 20.536 34.5195 20.5427 34.5904 20.564C34.6613 20.5852 34.7271 20.6206 34.784 20.6679L42.286 27.1696C42.3767 27.2397 42.4426 27.337 42.4741 27.4472C42.5056 27.5574 42.501 27.6748 42.461 27.7823C42.3735 27.9573 42.1985 28.1324 42.0359 28.1324L37.6098 28.5575H37.6473Z" fill="#7D7D80" stroke="#7D7D80" stroke-width="0.3" stroke-miterlimit="10"/>
<path id="Vector_13" d="M25.6691 21.6182H24.6313C24.5564 21.6299 24.4799 21.6252 24.407 21.6045C24.3341 21.5838 24.2665 21.5475 24.209 21.4982C24.1514 21.4489 24.1052 21.3877 24.0735 21.3189C24.0418 21.25 24.0254 21.1751 24.0254 21.0993C24.0254 21.0235 24.0418 20.9487 24.0735 20.8798C24.1052 20.811 24.1514 20.7498 24.209 20.7005C24.2665 20.6512 24.3341 20.6149 24.407 20.5942C24.4799 20.5735 24.5564 20.5688 24.6313 20.5805H25.6691C25.7929 20.5997 25.9057 20.6626 25.9872 20.7578C26.0686 20.8529 26.1134 20.9741 26.1134 21.0993C26.1134 21.2246 26.0686 21.3458 25.9872 21.4409C25.9057 21.5361 25.7929 21.599 25.6691 21.6182Z" fill="#7D7D80" stroke="#7D7D80" stroke-width="0.3" stroke-miterlimit="10"/>
<path id="Vector_14" d="M23.4937 20.2304C23.4062 20.2304 23.2312 20.2304 23.1561 20.1429C23.0979 20.0989 23.0492 20.0435 23.013 19.9801C22.9768 19.9167 22.954 19.8466 22.9458 19.7741C22.9376 19.7016 22.9443 19.6281 22.9654 19.5582C22.9865 19.4884 23.0216 19.4235 23.0686 19.3677L26.2694 15.2791C26.3645 15.1663 26.4992 15.0943 26.6458 15.078C26.7924 15.0617 26.9397 15.1024 27.0572 15.1916C27.1158 15.2367 27.1647 15.2932 27.201 15.3576C27.2373 15.4221 27.2603 15.4933 27.2684 15.5668C27.2766 15.6404 27.2699 15.7148 27.2486 15.7856C27.2273 15.8565 27.192 15.9224 27.1447 15.9793L23.9313 20.0553C23.7563 20.1429 23.6688 20.2304 23.4937 20.2304Z" fill="#7D7D80" stroke="#7D7D80" stroke-width="0.3" stroke-miterlimit="10"/>
<path id="Vector_15" d="M37.5596 21.6182H34.3463C34.2714 21.6299 34.1949 21.6252 34.1219 21.6045C34.049 21.5838 33.9815 21.5475 33.9239 21.4982C33.8663 21.4489 33.8201 21.3877 33.7885 21.3189C33.7568 21.25 33.7403 21.1751 33.7403 21.0993C33.7403 21.0235 33.7568 20.9486 33.7885 20.8798C33.8201 20.8109 33.8663 20.7498 33.9239 20.7005C33.9815 20.6512 34.049 20.6149 34.1219 20.5942C34.1949 20.5735 34.2714 20.5688 34.3463 20.5805H36.4218L32.7834 16.0667C32.7361 16.0098 32.7007 15.944 32.6795 15.8731C32.6582 15.8022 32.6514 15.7278 32.6596 15.6543C32.6678 15.5807 32.6907 15.5096 32.727 15.4451C32.7633 15.3806 32.8123 15.3241 32.8709 15.279C32.9864 15.1906 33.1316 15.1503 33.2761 15.1666C33.4206 15.183 33.5532 15.2546 33.6461 15.3665L37.9847 20.843C38.0631 20.9196 38.114 21.0199 38.1299 21.1283C38.1457 21.2367 38.1254 21.3474 38.0723 21.4432C37.9304 21.5656 37.7467 21.6283 37.5596 21.6182Z" fill="#7D7D80" stroke="#7D7D80" stroke-width="0.3" stroke-miterlimit="10"/>
<path id="Vector_16" d="M32.1706 43.3116H27.832C27.6998 43.3003 27.5759 43.2427 27.4821 43.1489C27.3883 43.0551 27.3306 42.9311 27.3193 42.799V37.3225C27.3386 37.1987 27.4015 37.0859 27.4967 37.0044C27.5918 36.923 27.713 36.8782 27.8382 36.8782C27.9635 36.8782 28.0846 36.923 28.1798 37.0044C28.2749 37.0859 28.3378 37.1987 28.3571 37.3225V42.3238H31.658V37.3225C31.6773 37.1987 31.7402 37.0859 31.8353 37.0044C31.9305 36.923 32.0516 36.8782 32.1769 36.8782C32.3022 36.8782 32.4233 36.923 32.5184 37.0044C32.6136 37.0859 32.6765 37.1987 32.6958 37.3225V42.799C32.684 42.9331 32.6246 43.0586 32.5283 43.1527C32.4319 43.2468 32.305 43.3031 32.1706 43.3116Z" fill="#7D7D80" stroke="#7D7D80" stroke-width="0.3" stroke-miterlimit="10"/>
<path id="Vector_17" d="M30.0955 22.5686C28.4797 22.5334 26.8866 22.1807 25.4068 21.5308C25.3399 21.5087 25.2788 21.4719 25.2279 21.4232C25.1769 21.3745 25.1374 21.3151 25.1123 21.2493C25.0872 21.1835 25.077 21.1129 25.0825 21.0426C25.088 20.9724 25.1091 20.9043 25.1442 20.8432C25.1679 20.7759 25.206 20.7146 25.2559 20.6637C25.3058 20.6128 25.3662 20.5734 25.433 20.5484C25.4997 20.5234 25.5712 20.5133 25.6423 20.5188C25.7134 20.5244 25.7823 20.5455 25.8444 20.5806C27.1231 21.2219 28.5338 21.5558 29.9642 21.5558C31.3947 21.5558 32.8054 21.2219 34.0841 20.5806C34.2124 20.5281 34.3558 20.5259 34.4856 20.5746C34.6155 20.6233 34.7221 20.7192 34.7843 20.8432C34.8362 20.9697 34.8379 21.1112 34.7891 21.239C34.7403 21.3667 34.6447 21.4711 34.5217 21.5308C33.1396 22.1954 31.6289 22.5496 30.0955 22.5686Z" fill="#7D7D80" stroke="#7D7D80" stroke-width="0.3" stroke-miterlimit="10"/>
<path id="Vector_18" d="M30.0082 30.1205C28.4606 30.112 26.9184 29.9402 25.4069 29.6078C25.2709 29.5596 25.1574 29.4631 25.088 29.3365C25.0186 29.21 24.9982 29.0624 25.0307 28.9218C25.0631 28.7812 25.1462 28.6574 25.264 28.5741C25.3818 28.4908 25.5261 28.4538 25.6695 28.47C29.5817 29.4337 33.7033 29.0686 37.3851 27.4322C37.5071 27.3961 37.6381 27.4055 37.7536 27.4587C37.8692 27.5119 37.9615 27.6052 38.0135 27.7213C38.0654 27.8375 38.0735 27.9685 38.0361 28.0901C37.9987 28.2117 37.9184 28.3156 37.8102 28.3825C35.3646 29.5157 32.7035 30.1085 30.0082 30.1205Z" fill="#7D7D80" stroke="#7D7D80" stroke-width="0.3" stroke-miterlimit="10"/>
<path id="Vector_19" d="M29.9203 16.8421C28.7297 16.8242 27.5521 16.5913 26.4444 16.1544C26.3125 16.0988 26.2054 15.997 26.1433 15.8681C26.0811 15.7392 26.0681 15.592 26.1068 15.4542C26.1576 15.3215 26.2567 15.2129 26.3843 15.1503C26.5119 15.0877 26.6584 15.0757 26.7945 15.1167C28.7458 15.8921 30.9198 15.8921 32.8711 15.1167C32.9381 15.0893 33.0101 15.0764 33.0824 15.0789C33.1548 15.0814 33.2257 15.0992 33.2907 15.1311C33.3557 15.163 33.4131 15.2082 33.4593 15.2639C33.5055 15.3196 33.5394 15.3845 33.5588 15.4542C33.5862 15.5221 33.5991 15.5949 33.5967 15.6681C33.5943 15.7413 33.5767 15.8131 33.5449 15.879C33.5131 15.9449 33.4679 16.0035 33.4122 16.0509C33.3564 16.0984 33.2914 16.1336 33.2212 16.1544C32.1823 16.6158 31.057 16.8503 29.9203 16.8421Z" fill="#7D7D80" stroke="#7D7D80" stroke-width="0.3" stroke-miterlimit="10"/>
<path id="Vector_20" d="M12.6536 21.6183H9.35279C9.23991 21.6209 9.12896 21.5887 9.03502 21.5261C8.94107 21.4634 8.86866 21.3734 8.82763 21.2683C8.77836 21.1714 8.76033 21.0617 8.77601 20.9543C8.79168 20.8468 8.8403 20.7468 8.91517 20.6681L13.2538 15.1917C13.3488 15.078 13.4848 15.0063 13.6323 14.9923C13.7797 14.9782 13.9268 15.0229 14.0415 15.1166C14.0998 15.1606 14.1485 15.216 14.1846 15.2794C14.2208 15.3428 14.2437 15.4129 14.2519 15.4854C14.26 15.558 14.2534 15.6314 14.2323 15.7012C14.2112 15.7711 14.1761 15.836 14.1291 15.8918L10.4781 20.4055H12.6536C12.7887 20.4146 12.9158 20.4732 13.0103 20.5701C13.1049 20.667 13.1604 20.7954 13.1663 20.9307C13.1663 21.3558 12.9162 21.6183 12.6536 21.6183Z" fill="#7D7D80" stroke="#7D7D80" stroke-width="0.3" stroke-miterlimit="10"/>
<path id="Vector_21" d="M24.6315 21.6182H21.3306C21.2558 21.6299 21.1792 21.6252 21.1063 21.6045C21.0334 21.5838 20.9659 21.5475 20.9083 21.4982C20.8507 21.4489 20.8045 21.3877 20.7728 21.3189C20.7411 21.25 20.7247 21.1751 20.7247 21.0993C20.7247 21.0235 20.7411 20.9486 20.7728 20.8798C20.8045 20.8109 20.8507 20.7498 20.9083 20.7005C20.9659 20.6512 21.0334 20.6149 21.1063 20.5942C21.1792 20.5735 21.2558 20.5688 21.3306 20.5805H23.4062L19.7677 16.0667C19.7204 16.0098 19.6851 15.944 19.6638 15.8731C19.6426 15.8022 19.6358 15.7278 19.644 15.6543C19.6522 15.5807 19.6751 15.5096 19.7114 15.4451C19.7477 15.3806 19.7966 15.3241 19.8553 15.279C19.9707 15.1906 20.116 15.1503 20.2605 15.1666C20.405 15.183 20.5376 15.2546 20.6305 15.3665L24.9691 20.843C25.0474 20.9196 25.0984 21.0199 25.1142 21.1283C25.13 21.2367 25.1098 21.3474 25.0567 21.4432C24.9404 21.5504 24.7896 21.6125 24.6315 21.6182Z" fill="#7D7D80" stroke="#7D7D80" stroke-width="0.3" stroke-miterlimit="10"/>
<path id="Vector_22" d="M22.4558 16.1542H20.2802C20.146 16.1425 20.0205 16.083 19.9265 15.9867C19.8324 15.8903 19.776 15.7634 19.7675 15.629C19.7763 15.496 19.8332 15.3707 19.9275 15.2764C20.0218 15.1821 20.1471 15.1252 20.2802 15.1164H21.3305L16.9918 9.99007L12.7407 15.1164H13.7785C13.9138 15.1223 14.0421 15.1778 14.139 15.2724C14.2359 15.367 14.2945 15.4939 14.3036 15.629C14.2948 15.7654 14.2366 15.8939 14.14 15.9906C14.0433 16.0872 13.9149 16.1454 13.7785 16.1542H11.6029C11.4936 16.1492 11.3879 16.1139 11.2977 16.0521C11.2075 15.9903 11.1362 15.9046 11.0921 15.8045C11.0479 15.7045 11.0325 15.5941 11.0477 15.4858C11.0628 15.3775 11.1078 15.2756 11.1778 15.1915L16.6417 8.68971C16.7612 8.57971 16.9169 8.5174 17.0793 8.51465C17.2379 8.51811 17.3894 8.58053 17.5044 8.68971L22.9809 15.1915C23.0603 15.2701 23.1117 15.3725 23.1275 15.4831C23.1433 15.5937 23.1226 15.7064 23.0684 15.8041C22.8059 16.0667 22.6308 16.1542 22.4558 16.1542Z" fill="#7D7D80" stroke="#7D7D80" stroke-width="0.3" stroke-miterlimit="10"/>
<path id="Vector_23" d="M9.35231 28.5577L5.01365 28.1326C4.83861 28.1326 4.57603 27.9575 4.57603 27.7825C4.54158 27.6745 4.53981 27.5587 4.57096 27.4497C4.6021 27.3407 4.66479 27.2433 4.7511 27.1698L12.3906 20.6681C12.505 20.5769 12.651 20.5349 12.7963 20.5513C12.9417 20.5678 13.0746 20.6412 13.1658 20.7556C13.257 20.87 13.299 21.016 13.2826 21.1614C13.2662 21.3067 13.1927 21.4396 13.0783 21.5308L6.48904 27.1323L9.43984 27.3949C9.58904 27.4107 9.72652 27.4829 9.82416 27.5969C9.9218 27.7108 9.97218 27.8577 9.96496 28.0076C9.78991 28.3077 9.61488 28.5577 9.35231 28.5577Z" fill="#7D7D80" stroke="#7D7D80" stroke-width="0.3" stroke-miterlimit="10"/>
<path id="Vector_24" d="M24.6316 28.5577C24.5628 28.5612 24.494 28.5504 24.4295 28.526C24.3651 28.5017 24.3064 28.4642 24.2571 28.4161C24.2078 28.368 24.1689 28.3102 24.143 28.2463C24.1171 28.1825 24.1047 28.114 24.1065 28.0451C24.1099 27.8981 24.1641 27.7568 24.2598 27.6451C24.3555 27.5335 24.4869 27.4583 24.6316 27.4324L27.6574 27.1698L21.0682 21.5308C20.9538 21.4396 20.8802 21.3067 20.8638 21.1614C20.8474 21.016 20.8894 20.87 20.9806 20.7556C21.0718 20.6412 21.2047 20.5678 21.3501 20.5513C21.4955 20.5349 21.6414 20.5769 21.7558 20.6681L29.3954 27.1698C29.4861 27.24 29.5519 27.3372 29.5834 27.4474C29.6149 27.5577 29.6104 27.6751 29.5704 27.7825C29.5324 27.8727 29.4725 27.9519 29.396 28.0131C29.3196 28.0742 29.2292 28.1153 29.1328 28.1326L24.6316 28.5577Z" fill="#7D7D80" stroke="#7D7D80" stroke-width="0.3" stroke-miterlimit="10"/>
<path id="Vector_25" d="M33.2965 37.8475H19.1553C19.0315 37.8282 18.9187 37.7653 18.8372 37.6702C18.7557 37.575 18.7109 37.4539 18.7109 37.3286C18.7109 37.2033 18.7557 37.0822 18.8372 36.987C18.9187 36.8918 19.0315 36.829 19.1553 36.8097H32.0462L24.2816 28.3825C24.1928 28.2771 24.1468 28.1422 24.1527 28.0045C24.1585 27.8668 24.2159 27.7364 24.3133 27.6389C24.4108 27.5415 24.5412 27.4841 24.6789 27.4783C24.8166 27.4724 24.9515 27.5184 25.0568 27.6073L33.7342 36.8972C33.8125 36.9738 33.8635 37.0741 33.8793 37.1825C33.8951 37.2909 33.8749 37.4016 33.8217 37.4974C33.7822 37.6036 33.7102 37.6947 33.6159 37.7576C33.5216 37.8205 33.4098 37.8519 33.2965 37.8475Z" fill="#7D7D80" stroke="#7D7D80" stroke-width="0.3" stroke-miterlimit="10"/>
<path id="Vector_26" d="M14.8161 37.8476H0.78736C0.674481 37.8502 0.563533 37.818 0.469588 37.7553C0.375642 37.6927 0.303232 37.6027 0.262204 37.4975C0.212931 37.4007 0.194902 37.291 0.210577 37.1835C0.226252 37.076 0.274869 36.976 0.349736 36.8973L8.93952 27.6074C8.98478 27.5454 9.04404 27.4949 9.11248 27.4602C9.18092 27.4254 9.25661 27.4072 9.33337 27.4072C9.41014 27.4072 9.48582 27.4254 9.55426 27.4602C9.6227 27.4949 9.68197 27.5454 9.72723 27.6074C9.78916 27.6513 9.83966 27.7094 9.87452 27.7768C9.90937 27.8443 9.92759 27.919 9.92759 27.995C9.92759 28.0709 9.90937 28.1457 9.87452 28.2131C9.83966 28.2805 9.78916 28.3387 9.72723 28.3826L2.03769 36.8098H14.8786C14.9535 36.7981 15.03 36.8028 15.1029 36.8236C15.1758 36.8443 15.2434 36.8805 15.301 36.9298C15.3585 36.9791 15.4048 37.0403 15.4365 37.1091C15.4681 37.178 15.4845 37.2529 15.4845 37.3287C15.4845 37.4045 15.4681 37.4794 15.4365 37.5482C15.4048 37.6171 15.3585 37.6782 15.301 37.7275C15.2434 37.7768 15.1758 37.8131 15.1029 37.8338C15.03 37.8546 14.9535 37.8592 14.8786 37.8476H14.8161Z" fill="#7D7D80" stroke="#7D7D80" stroke-width="0.3" stroke-miterlimit="10"/>
<path id="Vector_27" d="M19.155 43.3116H14.8164C14.6833 43.3028 14.558 43.2459 14.4637 43.1516C14.3694 43.0573 14.3125 42.932 14.3037 42.7989V37.3225C14.3125 37.1894 14.3694 37.0641 14.4637 36.9698C14.558 36.8755 14.6833 36.8186 14.8164 36.8098H19.155C19.2894 36.8183 19.4163 36.8747 19.5127 36.9687C19.609 37.0628 19.6684 37.1883 19.6801 37.3225V42.7989C19.6684 42.9331 19.609 43.0586 19.5127 43.1526C19.4163 43.2467 19.2894 43.3031 19.155 43.3116ZM15.3415 42.1863H18.6424V37.8476H15.3415V42.1863Z" fill="#7D7D80" stroke="#7D7D80" stroke-width="0.3" stroke-miterlimit="10"/>
<path id="Vector_28" d="M17.0418 22.5686C15.426 22.5334 13.8328 22.1807 12.3531 21.5308C12.2862 21.5087 12.2251 21.4719 12.1741 21.4232C12.1232 21.3745 12.0837 21.3151 12.0586 21.2493C12.0335 21.1835 12.0233 21.1129 12.0288 21.0426C12.0343 20.9724 12.0554 20.9043 12.0905 20.8432C12.1142 20.7759 12.1523 20.7146 12.2021 20.6637C12.252 20.6128 12.3125 20.5734 12.3793 20.5484C12.446 20.5234 12.5175 20.5133 12.5886 20.5188C12.6596 20.5244 12.7286 20.5455 12.7907 20.5806C14.0694 21.2219 15.48 21.5558 16.9105 21.5558C18.341 21.5558 19.7517 21.2219 21.0304 20.5806C21.1569 20.5287 21.2984 20.5269 21.4262 20.5757C21.5539 20.6245 21.6583 20.7201 21.718 20.8432C21.7679 20.9685 21.77 21.1078 21.7239 21.2346C21.6778 21.3614 21.5867 21.4668 21.468 21.5308C20.0859 22.1954 18.5752 22.5496 17.0418 22.5686Z" fill="#7D7D80" stroke="#7D7D80" stroke-width="0.3" stroke-miterlimit="10"/>
<path id="Vector_29" d="M17.0419 30.1206C14.2947 30.1145 11.577 29.5531 9.05224 28.4701C8.98536 28.448 8.92425 28.4112 8.87332 28.3625C8.82239 28.3138 8.78295 28.2544 8.75782 28.1886C8.73269 28.1227 8.72251 28.0521 8.72802 27.9819C8.73353 27.9117 8.75458 27.8435 8.78968 27.7824C8.81334 27.7152 8.85147 27.6539 8.90137 27.603C8.95126 27.5521 9.0117 27.5127 9.07845 27.4877C9.14521 27.4626 9.21667 27.4525 9.28775 27.4581C9.35883 27.4636 9.42781 27.4847 9.48986 27.5199C11.8538 28.5102 14.3913 29.0203 16.9544 29.0203C19.5174 29.0203 22.0549 28.5102 24.4188 27.5199C24.4825 27.4805 24.5539 27.4552 24.6281 27.4457C24.7023 27.4361 24.7777 27.4426 24.8492 27.4646C24.9208 27.4866 24.9868 27.5236 25.0429 27.5732C25.0989 27.6228 25.1437 27.6838 25.1743 27.7521C25.2049 27.8204 25.2205 27.8945 25.2201 27.9693C25.2197 28.0441 25.2033 28.118 25.172 28.186C25.1407 28.254 25.0953 28.3146 25.0387 28.3635C24.9821 28.4125 24.9157 28.4489 24.8439 28.4701C22.3739 29.5179 19.7246 30.0783 17.0419 30.1206Z" fill="#7D7D80" stroke="#7D7D80" stroke-width="0.3" stroke-miterlimit="10"/>
<path id="Vector_30" d="M17.0424 16.8421C15.8517 16.8253 14.6739 16.5923 13.5665 16.1544C13.434 16.0989 13.3258 15.9977 13.2616 15.8693C13.1974 15.7408 13.1813 15.5935 13.2164 15.4542C13.272 15.3223 13.3738 15.2153 13.5027 15.1531C13.6316 15.091 13.7788 15.078 13.9166 15.1167C15.8679 15.8921 18.0419 15.8921 19.9932 15.1167C20.0602 15.0893 20.1322 15.0764 20.2046 15.0789C20.2769 15.0814 20.3479 15.0992 20.4128 15.1311C20.4778 15.163 20.5353 15.2082 20.5815 15.2639C20.6277 15.3196 20.6616 15.3845 20.6809 15.4542C20.7081 15.5229 20.7206 15.5966 20.7174 15.6704C20.7142 15.7442 20.6955 15.8165 20.6624 15.8826C20.6294 15.9487 20.5828 16.0071 20.5256 16.0539C20.4685 16.1007 20.4021 16.135 20.3308 16.1544C19.2912 16.5998 18.1734 16.8335 17.0424 16.8421Z" fill="#7D7D80" stroke="#7D7D80" stroke-width="0.3" stroke-miterlimit="10"/>
</g>
<defs>
<clipPath id="clip0_140_478">
<rect width="47" height="43.4991" fill="white"/>
</clipPath>
</defs>
</svg>
