<svg width="37" height="38" viewBox="0 0 37 38" fill="none" xmlns="http://www.w3.org/2000/svg">
<g id="&#209;&#132;&#209;&#131;&#209;&#130;&#209;&#131;&#209;&#128;&#208;&#184;&#208;&#183;&#208;&#188; 1" clip-path="url(#clip0_140_267)">
<path id="Vector" d="M32.3903 16.7742C32.4461 16.6982 32.4915 16.615 32.5252 16.5269L36.7638 3.83379C36.8418 3.6693 36.8985 3.49551 36.9324 3.31664C37.0214 2.87861 37.0002 2.42534 36.8707 1.99754C36.7411 1.56975 36.5074 1.18079 36.1904 0.865683C35.8686 0.54182 35.4693 0.305698 35.0304 0.179753C34.5916 0.0538073 34.1278 0.042245 33.6832 0.146163H33.6045L33.256 0.258598L20.8889 4.33973C20.3109 4.45366 19.7791 4.73518 19.3599 5.14922L10.3657 14.1434L3.02418 13.0192H2.86677C2.48 12.9571 2.08397 12.989 1.71216 13.1123C1.34035 13.2356 1.00369 13.4466 0.730646 13.7274C0.274592 14.1974 0.0195312 14.8265 0.0195312 15.4813C0.0195312 16.1361 0.274592 16.7653 0.730646 17.2352L0.786846 17.3027L4.03603 20.5518L3.14784 21.44C2.56003 22.0409 2.2309 22.848 2.2309 23.6886C2.2309 24.5291 2.56003 25.3363 3.14784 25.9371L4.21592 26.9939L4.10348 27.1963C4.02537 27.3433 3.9974 27.5118 4.02378 27.6762C4.05016 27.8405 4.12946 27.9918 4.24964 28.107L8.89292 32.7502C9.00825 32.8664 9.15736 32.943 9.31891 32.9693C9.48046 32.9955 9.64616 32.97 9.79233 32.8964L10.0059 32.784L11.1302 33.9082C11.4247 34.2048 11.775 34.4399 12.161 34.6001C12.547 34.7603 12.9609 34.8423 13.3788 34.8414C13.7968 34.8435 14.2111 34.7621 14.5973 34.6019C14.9834 34.4416 15.3336 34.2058 15.6273 33.9082L16.3356 33.1999L19.6298 36.4941C19.6542 36.526 19.6848 36.5528 19.7197 36.5728L19.7984 36.6627C20.0315 36.8958 20.3086 37.0804 20.6135 37.2058C20.9184 37.3313 21.2451 37.3951 21.5748 37.3935C21.967 37.3953 22.3542 37.3047 22.7049 37.1289C23.0556 36.9531 23.3599 36.6972 23.5931 36.3818C23.8264 36.0664 23.982 35.7004 24.0474 35.3137C24.1128 34.9269 24.0861 34.5301 23.9695 34.1556V34.0544L22.8452 26.7353L31.9181 17.6624C32.1226 17.3939 32.2821 17.0939 32.3903 16.7742ZM1.5626 16.5494L1.49515 16.4707V16.4145C1.22664 16.1394 1.07636 15.7702 1.07636 15.3857C1.07636 15.0013 1.22664 14.6321 1.49515 14.357C1.66936 14.1806 1.88589 14.0519 2.12405 13.983C2.36221 13.9141 2.61407 13.9074 2.85555 13.9636C2.92198 13.9802 2.99148 13.9802 3.05791 13.9636L9.48878 14.9867L4.7668 19.7086L1.5626 16.5494ZM22.8564 33.9195C22.823 34.0179 22.823 34.1246 22.8564 34.223C22.9682 34.4912 22.9969 34.7867 22.9388 35.0714C22.8807 35.356 22.7384 35.6167 22.5304 35.8195C22.3966 35.9588 22.236 36.0694 22.0582 36.1448C21.8804 36.2201 21.6892 36.2586 21.4961 36.258C21.304 36.2582 21.1139 36.2206 20.9364 36.1473C20.7589 36.074 20.5976 35.9664 20.4617 35.8307C20.4369 35.8094 20.4176 35.7825 20.4055 35.7521L20.3493 35.6846C20.2952 35.6169 20.2258 35.563 20.1469 35.5272L17.0552 32.4354L21.8333 27.646L22.8564 33.9195ZM31.0524 15.931C30.9718 16.1162 30.8617 16.2871 30.7264 16.4369L14.4693 32.7053C14.3233 32.8563 14.1487 32.9769 13.9557 33.0598C13.7627 33.1428 13.5551 33.1866 13.345 33.1887C13.181 33.1853 13.0183 33.1589 12.8616 33.11C12.7102 33.0635 12.5663 32.9953 12.4344 32.9076C12.3445 32.8499 12.2615 32.782 12.187 32.7053L10.6918 31.21C10.6206 31.1355 10.5351 31.0763 10.4404 31.0357C10.3457 30.9951 10.2438 30.9741 10.1408 30.9739C10.0156 30.9756 9.89242 31.0064 9.78107 31.0638L9.56749 31.1763L5.72244 27.3312L5.83488 27.1176C5.91299 26.9706 5.94096 26.8021 5.91458 26.6378C5.8882 26.4734 5.8089 26.3221 5.68872 26.2069L4.23839 24.7566C3.93219 24.449 3.76027 24.0326 3.76027 23.5986C3.76027 23.1646 3.93219 22.7482 4.23839 22.4406L20.4954 6.19479C20.7198 5.98354 21.0013 5.84279 21.3049 5.79003H21.3724L33.8181 1.68642H33.8744L34.0205 1.63022C34.2168 1.57197 34.4252 1.56841 34.6233 1.61993C34.8215 1.67144 35.0018 1.77604 35.1448 1.92251C35.2784 2.05118 35.3781 2.21093 35.435 2.38748C35.4919 2.56403 35.5042 2.75192 35.4708 2.93439C35.4514 3.01883 35.425 3.10155 35.3921 3.18173V3.2604L31.1986 15.8523C31.1438 15.8763 31.0941 15.9106 31.0524 15.9535V15.931Z" fill="#7D7D80"/>
<path id="Vector_2" d="M16.4145 18.8542C15.884 18.3226 15.1642 18.0234 14.4133 18.0222C13.6623 18.0234 12.9425 18.3226 12.4121 18.8542L8.938 22.3282C8.4073 22.8613 8.10938 23.5828 8.10938 24.335C8.10938 25.0872 8.4073 25.8088 8.938 26.3419L10.5795 27.9721C10.8406 28.2373 11.1522 28.4476 11.4959 28.5905C11.8396 28.7333 12.2085 28.806 12.5807 28.804C12.9531 28.8072 13.3223 28.7352 13.6662 28.5922C14.01 28.4493 14.3215 28.2384 14.5819 27.9721L18.0559 24.5093C18.32 24.2461 18.5296 23.9333 18.6726 23.589C18.8156 23.2446 18.8892 22.8754 18.8892 22.5025C18.8892 22.1296 18.8156 21.7604 18.6726 21.416C18.5296 21.0716 18.32 20.7589 18.0559 20.4956L16.4145 18.8542ZM16.9541 23.3513L13.4801 26.8253C13.3634 26.9453 13.2235 27.0401 13.0688 27.1039C12.9141 27.1677 12.748 27.1992 12.5807 27.1963C12.4134 27.1992 12.2472 27.1677 12.0926 27.1039C11.9379 27.0401 11.7979 26.9453 11.6812 26.8253L10.0398 25.1951C9.80291 24.9534 9.67022 24.6285 9.67022 24.2901C9.67022 23.9517 9.80291 23.6267 10.0398 23.385L13.5138 19.911C13.7532 19.6739 14.0763 19.5406 14.4133 19.54C14.7502 19.5406 15.0733 19.6739 15.3127 19.911L16.9541 21.5525C17.073 21.6699 17.1672 21.81 17.2309 21.9645C17.2946 22.119 17.3267 22.2848 17.3251 22.4519C17.3351 22.6267 17.307 22.8017 17.243 22.9647C17.179 23.1277 17.0804 23.2749 16.9541 23.3963V23.3513Z" fill="#7D7D80"/>
<path id="Vector_3" d="M24.9707 10.096C24.3235 9.7511 23.6017 9.5697 22.8683 9.56763C21.6791 9.56967 20.5392 10.0426 19.6978 10.883C19.0803 11.513 18.6617 12.3106 18.494 13.1767C18.3264 14.0428 18.4172 14.939 18.7551 15.7539C19.0931 16.5688 19.6632 17.2662 20.3946 17.7595C21.1259 18.2528 21.9862 18.5201 22.8683 18.5281C24.061 18.5281 25.2049 18.0543 26.0482 17.211C26.8916 16.3676 27.3654 15.2237 27.3654 14.031C27.3679 13.4433 27.2528 12.8611 27.0269 12.3185C26.801 11.776 26.4688 11.2841 26.05 10.8718C25.7331 10.5582 25.3689 10.2964 24.9707 10.096ZM24.9707 16.1109C24.7014 16.3824 24.3808 16.5977 24.0276 16.7444C23.6745 16.8911 23.2957 16.9662 22.9133 16.9654C22.5299 16.9668 22.1501 16.8926 21.7955 16.7469C21.4409 16.6013 21.1186 16.387 20.847 16.1165C20.5754 15.846 20.3599 15.5244 20.2128 15.1704C20.0658 14.8164 19.9901 14.4368 19.9901 14.0535C19.9931 13.2791 20.302 12.5373 20.8496 11.9898C21.3971 11.4422 22.1389 11.1333 22.9133 11.1304C23.4886 11.1341 24.0501 11.3075 24.5273 11.629C25.0046 11.9504 25.3763 12.4056 25.596 12.9374C25.8157 13.4692 25.8735 14.054 25.7623 14.6185C25.6511 15.183 25.3757 15.7022 24.9707 16.1109Z" fill="#7D7D80"/>
</g>
<defs>
<clipPath id="clip0_140_267">
<rect width="37" height="37.2923" fill="white"/>
</clipPath>
</defs>
</svg>
