<svg width="45" height="45" viewBox="0 0 45 45" fill="none" xmlns="http://www.w3.org/2000/svg">
<g id="&#209;&#150;&#209;&#129;&#209;&#130;&#208;&#190;&#209;&#128;&#208;&#184;&#209;&#135;&#208;&#189;&#209;&#150; 2" clip-path="url(#clip0_140_372)">
<path id="Vector" d="M42.3677 26.4437H31.8158V22.2976C31.8171 21.6965 31.6628 21.1054 31.3682 20.5816C31.4524 20.5551 31.5306 20.5123 31.5983 20.4556C31.6659 20.3989 31.7218 20.3294 31.7625 20.2511C31.8252 20.1426 31.8582 20.0194 31.8582 19.8941C31.8582 19.7687 31.8252 19.6456 31.7625 19.537L23.8113 7.52497V5.60643L28.7249 3.58133C28.8504 3.52661 28.9572 3.43644 29.0322 3.3219C29.1072 3.20735 29.1472 3.07341 29.1472 2.93648C29.1472 2.79956 29.1072 2.66561 29.0322 2.55107C28.9572 2.43653 28.8504 2.34639 28.7249 2.29167L23.2997 0.0533857C23.1938 0.0103274 23.0787 -0.0054171 22.9651 0.00762013C22.8515 0.0206573 22.743 0.0620657 22.6495 0.128003C22.5547 0.191118 22.4768 0.276666 22.4229 0.377062C22.369 0.477458 22.3407 0.589578 22.3404 0.703536V5.16943C22.3438 5.2765 22.3692 5.38174 22.4151 5.47854V7.61023L14.5065 19.569C14.44 19.6578 14.3962 19.7614 14.3788 19.8709C14.3614 19.9804 14.371 20.0925 14.4067 20.1975C14.4424 20.3025 14.5031 20.3972 14.5837 20.4734C14.6642 20.5496 14.7621 20.605 14.8689 20.6349C14.5658 21.1558 14.4076 21.7482 14.4106 22.3509V26.497H2.68628C1.98707 26.497 1.31633 26.774 0.820918 27.2674C0.325509 27.7609 0.0457881 28.4305 0.0429688 29.1297V41.4828C0.0457881 42.182 0.325509 42.8516 0.820918 43.345C1.31633 43.8384 1.98707 44.1154 2.68628 44.1154H42.4103C43.1095 44.1154 43.7803 43.8384 44.2757 43.345C44.7711 42.8516 45.0508 42.182 45.0536 41.4828V29.0763C45.0523 28.7265 44.9815 28.3804 44.8453 28.0581C44.7092 27.7359 44.5105 27.4438 44.2606 27.1989C44.0108 26.9541 43.7148 26.7612 43.3899 26.6316C43.0649 26.5019 42.7175 26.4381 42.3677 26.4437ZM23.7048 1.73741L26.6038 2.93115L23.7048 4.1782V1.73741ZM23.0972 9.01715L29.8547 19.2279H16.3398L23.0972 9.01715ZM24.7173 42.6659H20.8376V34.9492H24.7173V42.6659ZM43.6147 41.4828C43.6147 41.8135 43.4834 42.1307 43.2495 42.3646C43.0156 42.5984 42.6984 42.7299 42.3677 42.7299H26.1135V34.2031C26.1135 34.0193 26.0406 33.8431 25.9106 33.7132C25.7807 33.5833 25.6045 33.5103 25.4207 33.5103H20.1448C19.9611 33.5103 19.7849 33.5833 19.6549 33.7132C19.525 33.8431 19.452 34.0193 19.452 34.2031V42.7299H2.64363C2.47987 42.7299 2.3177 42.6976 2.1664 42.6349C2.0151 42.5722 1.87763 42.4804 1.76183 42.3646C1.64603 42.2488 1.5542 42.1113 1.49153 41.96C1.42886 41.8087 1.39658 41.6466 1.39658 41.4828V29.0763C1.39657 28.9131 1.42892 28.7514 1.49172 28.6007C1.55452 28.45 1.64654 28.3133 1.76248 28.1983C1.87842 28.0834 2.01597 27.9925 2.16721 27.931C2.31845 27.8695 2.48038 27.8386 2.64363 27.84H15.082C15.1782 27.8402 15.2733 27.8204 15.3614 27.7819C15.4495 27.7434 15.5286 27.6869 15.5937 27.6161C15.6605 27.5475 15.7122 27.4655 15.7453 27.3755C15.7783 27.2855 15.792 27.1895 15.7855 27.0939C15.7805 27.0371 15.7805 26.9801 15.7855 26.9233V22.2976C15.7855 21.381 16.3504 20.6136 17.0326 20.6136H29.1939C29.8653 20.6136 30.4409 21.381 30.4409 22.2976V26.9233C30.4409 26.9766 30.4409 27.0299 30.4409 27.0939C30.4335 27.1892 30.446 27.2851 30.4775 27.3754C30.509 27.4657 30.5589 27.5485 30.6239 27.6186C30.689 27.6887 30.7679 27.7445 30.8557 27.7826C30.9434 27.8207 31.038 27.8403 31.1337 27.84H42.389C42.5523 27.8386 42.7142 27.8695 42.8654 27.931C43.0167 27.9925 43.1542 28.0834 43.2701 28.1983C43.3861 28.3133 43.4781 28.45 43.5409 28.6007C43.6037 28.7514 43.6361 28.9131 43.636 29.0763L43.6147 41.4828Z" fill="#7D7D80"/>
<path id="Vector_2" d="M21.882 23.5232H18.4074C18.3141 23.5232 18.2246 23.5602 18.1587 23.6262C18.0927 23.6922 18.0557 23.7817 18.0557 23.8749V27.3496C18.0557 27.4429 18.0927 27.5323 18.1587 27.5983C18.2246 27.6643 18.3141 27.7013 18.4074 27.7013H21.882C21.9753 27.7013 22.0648 27.6643 22.1307 27.5983C22.1967 27.5323 22.2338 27.4429 22.2338 27.3496V23.8749C22.2338 23.7817 22.1967 23.6922 22.1307 23.6262C22.0648 23.5602 21.9753 23.5232 21.882 23.5232ZM21.5303 26.9979H18.7591V24.2267H21.5303V26.9979Z" fill="#7D7D80"/>
<path id="Vector_3" d="M27.4563 23.5232H23.9816C23.8883 23.5232 23.7989 23.5602 23.7329 23.6262C23.6669 23.6922 23.6299 23.7817 23.6299 23.8749V27.3496C23.6299 27.4429 23.6669 27.5323 23.7329 27.5983C23.7989 27.6643 23.8883 27.7013 23.9816 27.7013H27.4563C27.502 27.7013 27.5472 27.6922 27.5893 27.6744C27.6314 27.6566 27.6695 27.6305 27.7013 27.5977C27.7331 27.5649 27.758 27.526 27.7745 27.4834C27.791 27.4408 27.7988 27.3953 27.7973 27.3496V23.8749C27.7988 23.8293 27.791 23.7837 27.7745 23.7411C27.758 23.6985 27.7331 23.6596 27.7013 23.6268C27.6695 23.594 27.6314 23.568 27.5893 23.5502C27.5472 23.5324 27.502 23.5232 27.4563 23.5232ZM27.1045 26.9979H24.3227V24.2267H27.1045V26.9979Z" fill="#7D7D80"/>
<path id="Vector_4" d="M8.84692 33.3504H5.37226C5.32658 33.349 5.28106 33.3568 5.23844 33.3733C5.19582 33.3898 5.15698 33.4147 5.12417 33.4465C5.09136 33.4783 5.06528 33.5164 5.04747 33.5585C5.02967 33.6006 5.02049 33.6458 5.02051 33.6915V37.2194C5.02051 37.3127 5.05759 37.4022 5.12355 37.4681C5.18952 37.5341 5.27897 37.5712 5.37226 37.5712H8.84692C8.94021 37.5712 9.02966 37.5341 9.09562 37.4681C9.16159 37.4022 9.19864 37.3127 9.19864 37.2194V33.7448C9.20659 33.6948 9.20334 33.6437 9.18911 33.5952C9.17487 33.5467 9.15001 33.5019 9.11634 33.4641C9.08268 33.4264 9.04103 33.3966 8.99443 33.3769C8.94783 33.3573 8.89746 33.3482 8.84692 33.3504ZM8.49517 36.8144H5.72397V34.0219H8.49517V36.8144Z" fill="#7D7D80"/>
<path id="Vector_5" d="M14.4211 33.3503H10.9465C10.9008 33.3488 10.8553 33.3566 10.8127 33.3731C10.77 33.3896 10.7312 33.4145 10.6984 33.4463C10.6655 33.4781 10.6395 33.5162 10.6217 33.5583C10.6039 33.6004 10.5947 33.6456 10.5947 33.6913V37.2193C10.5947 37.3126 10.6318 37.402 10.6977 37.468C10.7637 37.534 10.8532 37.571 10.9465 37.571H14.4211C14.4668 37.571 14.5121 37.5619 14.5541 37.5441C14.5962 37.5263 14.6343 37.5002 14.6661 37.4674C14.6979 37.4346 14.7229 37.3957 14.7394 37.3531C14.7559 37.3105 14.7636 37.265 14.7622 37.2193V33.7446C14.7699 33.6956 14.7669 33.6454 14.7533 33.5977C14.7396 33.55 14.7158 33.5058 14.6833 33.4682C14.6508 33.4307 14.6105 33.4006 14.5652 33.3803C14.52 33.3599 14.4708 33.3497 14.4211 33.3503ZM14.0694 36.8143H11.2875V34.0218H14.0694V36.8143Z" fill="#7D7D80"/>
<path id="Vector_6" d="M34.6936 33.3503H31.2189C31.1733 33.3488 31.1277 33.3566 31.0851 33.3731C31.0425 33.3896 31.0037 33.4145 30.9709 33.4463C30.938 33.4781 30.912 33.5162 30.8942 33.5583C30.8763 33.6004 30.8672 33.6456 30.8672 33.6913V37.2193C30.8672 37.3126 30.9043 37.402 30.9702 37.468C31.0362 37.534 31.1257 37.571 31.2189 37.571H34.6936C34.7393 37.571 34.7845 37.5619 34.8266 37.5441C34.8687 37.5263 34.9068 37.5002 34.9386 37.4674C34.9704 37.4346 34.9953 37.3957 35.0118 37.3531C35.0283 37.3105 35.0361 37.265 35.0346 37.2193V33.7446C35.0424 33.6956 35.0394 33.6454 35.0258 33.5977C35.0121 33.55 34.9882 33.5058 34.9558 33.4682C34.9233 33.4307 34.883 33.4006 34.8377 33.3803C34.7924 33.3599 34.7433 33.3497 34.6936 33.3503ZM34.3419 36.8143H31.56V34.0218H34.3419V36.8143Z" fill="#7D7D80"/>
<path id="Vector_7" d="M40.2573 33.3504H36.7827C36.6922 33.3504 36.6054 33.3864 36.5415 33.4503C36.4775 33.5143 36.4416 33.601 36.4416 33.6915V37.2194C36.4401 37.2651 36.4479 37.3106 36.4644 37.3532C36.4809 37.3959 36.5058 37.4347 36.5376 37.4675C36.5694 37.5003 36.6075 37.5264 36.6496 37.5442C36.6917 37.562 36.737 37.5712 36.7827 37.5712H40.2573C40.3506 37.5712 40.4401 37.5341 40.506 37.4681C40.572 37.4022 40.609 37.3127 40.609 37.2194V33.7448C40.617 33.6948 40.6137 33.6437 40.5995 33.5952C40.5853 33.5467 40.5604 33.5019 40.5267 33.4641C40.4931 33.4264 40.4514 33.3966 40.4048 33.3769C40.3582 33.3573 40.3079 33.3482 40.2573 33.3504ZM39.9162 36.8144H37.1344V34.0219H39.9162V36.8144Z" fill="#7D7D80"/>
</g>
<defs>
<clipPath id="clip0_140_372">
<rect width="45" height="44.158" fill="white"/>
</clipPath>
</defs>
</svg>
