<svg width="50" height="35" viewBox="0 0 50 35" fill="none" xmlns="http://www.w3.org/2000/svg">
<path id="Vector" d="M49.1269 14.1397H34.0503V0.926314C34.0503 0.694758 33.9583 0.472679 33.7945 0.308944C33.6308 0.145209 33.4087 0.0532227 33.1772 0.0532227H16.8761C16.6445 0.0532227 16.4224 0.145209 16.2587 0.308944C16.095 0.472679 16.003 0.694758 16.003 0.926314V6.68654H0.862433C0.633701 6.68654 0.41434 6.7774 0.252602 6.93914C0.0908637 7.10088 2.41718e-09 7.32024 2.41718e-09 7.54897V34.0502C-1.70805e-05 34.28 0.0905128 34.5004 0.251952 34.6639C0.413391 34.8273 0.632727 34.9205 0.862433 34.9233H49.1269C49.3585 34.9233 49.5806 34.8313 49.7443 34.6676C49.908 34.5039 50 34.2818 50 34.0502V15.0021C49.9972 14.7724 49.904 14.5531 49.7406 14.3916C49.5771 14.2302 49.3567 14.1397 49.1269 14.1397ZM39.6721 25.9157H42.5682V33.4753H39.6721V25.9157ZM48.2645 33.1239H43.6329V25.4152C43.6329 25.2769 43.5779 25.1442 43.4801 25.0463C43.3822 24.9485 43.2495 24.8935 43.1112 24.8935H39.161C39.0226 24.8935 38.8899 24.9485 38.7921 25.0463C38.6942 25.1442 38.6393 25.2769 38.6393 25.4152V33.1452H33.9864V15.8326H48.2645V33.1239ZM1.73552 8.37947H16.003V33.1346H11.3607V25.4152C11.3607 25.2769 11.3058 25.1442 11.2079 25.0463C11.1101 24.9485 10.9774 24.8935 10.839 24.8935H6.8995C6.76113 24.8935 6.62841 24.9485 6.53057 25.0463C6.43273 25.1442 6.37779 25.2769 6.37779 25.4152V33.1452H1.73552V8.37947ZM7.43187 25.9157H10.328V33.4753H7.43187V25.9157ZM32.2615 15.0021V33.1026H27.2679V25.4152C27.2679 25.2769 27.2129 25.1442 27.1151 25.0463C27.0172 24.9485 26.8846 24.8935 26.7462 24.8935H22.8173C22.6789 24.8935 22.5462 24.9485 22.4484 25.0463C22.3505 25.1442 22.2956 25.2769 22.2956 25.4152V33.1452H17.7492V1.73552H32.2721V14.8956C32.2603 14.93 32.2531 14.9658 32.2509 15.0021H32.2615ZM23.339 33.4753V25.9157H26.2245V33.4753H23.339Z" fill="#7D7D80"/>
</svg>
