<svg width="32" height="27" viewBox="0 0 36 31" fill="none" xmlns="http://www.w3.org/2000/svg">
<g id="&#209;&#132;&#208;&#190;&#209;&#130;&#208;&#190;1 1" clip-path="url(#clip0_140_394)">
<path id="Vector" d="M1.30138 30.7195H34.7112C35.0066 30.7195 35.2898 30.6022 35.4987 30.3933C35.7075 30.1845 35.8249 29.9013 35.8249 29.6059V6.05636C35.8249 5.9107 35.796 5.76649 35.7399 5.63207C35.6838 5.49765 35.6015 5.37568 35.4979 5.27326C35.3943 5.17085 35.2715 5.09 35.1364 5.0354C35.0014 4.9808 34.8569 4.95355 34.7112 4.95521H25.7519V1.30142C25.7535 1.15577 25.7263 1.01122 25.6717 0.876175C25.6171 0.74113 25.5362 0.618241 25.4338 0.514661C25.3314 0.411081 25.2094 0.328866 25.075 0.272748C24.9406 0.216629 24.7964 0.187735 24.6507 0.187744H15.5037C15.2083 0.187744 14.925 0.305084 14.7162 0.513935C14.5073 0.722787 14.39 1.00606 14.39 1.30142V4.95521H10.3733V4.56731C10.375 4.42165 10.3477 4.2771 10.2931 4.14206C10.2385 4.00701 10.1577 3.88416 10.0553 3.78058C9.95286 3.677 9.83093 3.59475 9.69651 3.53863C9.56209 3.48251 9.41788 3.45362 9.27222 3.45363H6.16897C6.02331 3.45362 5.8791 3.48251 5.74468 3.53863C5.61026 3.59475 5.48829 3.677 5.38587 3.78058C5.28346 3.88416 5.20261 4.00701 5.14801 4.14206C5.09341 4.2771 5.06616 4.42165 5.06782 4.56731V4.99274H1.31391C1.16825 4.99109 1.0237 5.01834 0.888659 5.07294C0.753614 5.12753 0.630763 5.20839 0.527183 5.3108C0.423603 5.41322 0.341351 5.53519 0.285232 5.6696C0.229113 5.80402 0.200257 5.94823 0.200266 6.0939V29.5934C0.198614 29.7396 0.225784 29.8848 0.280229 30.0205C0.334675 30.1563 0.415307 30.28 0.51756 30.3845C0.619813 30.4891 0.741681 30.5725 0.876172 30.63C1.01066 30.6875 1.15513 30.7179 1.30138 30.7195ZM16.5923 2.40254H23.5245V4.90514H16.5923V2.40254ZM2.40253 7.17H33.5975V28.5047H2.40253V7.17Z" fill="#7D7D80" stroke="#E3E5EA" stroke-width="0.3" stroke-miterlimit="10"/>
<path id="Vector_2" d="M22.9118 9.39722C21.2235 9.39722 19.573 9.89805 18.1693 10.8363C16.7657 11.7746 15.6719 13.1082 15.0263 14.6682C14.3808 16.2283 14.2125 17.9448 14.5428 19.6006C14.8731 21.2564 15.6871 22.7769 16.8819 23.9699C18.0766 25.1629 19.5984 25.9747 21.2546 26.3026C22.9109 26.6304 24.6271 26.4597 26.1863 25.8118C27.7454 25.164 29.0774 24.0682 30.0136 22.6632C30.9498 21.2581 31.4482 19.607 31.4457 17.9186C31.4424 15.6575 30.5418 13.49 28.9418 11.8923C27.3417 10.2946 25.173 9.39721 22.9118 9.39722ZM22.9118 24.2502C21.659 24.2527 20.4337 23.8835 19.3908 23.1892C18.3479 22.495 17.5344 21.507 17.0533 20.3503C16.5721 19.1936 16.445 17.9201 16.6879 16.6911C16.9307 15.462 17.5328 14.3327 18.4178 13.4459C19.3028 12.5592 20.4309 11.9549 21.6595 11.7096C22.888 11.4643 24.1617 11.589 25.3194 12.0678C26.4771 12.5467 27.4667 13.3582 28.163 14.3997C28.8592 15.4412 29.2309 16.6658 29.2309 17.9186C29.2309 19.5957 28.5656 21.2042 27.3809 22.3913C26.1962 23.5783 24.5889 24.2469 22.9118 24.2502Z" fill="#7D7D80" stroke="#E3E5EA" stroke-width="0.3" stroke-miterlimit="10"/>
<path id="Vector_3" d="M22.9112 13.3264C22.0098 13.3264 21.1287 13.5939 20.3794 14.0949C19.6301 14.596 19.0463 15.308 18.702 16.141C18.3576 16.974 18.2681 17.8905 18.4449 18.7744C18.6216 19.6582 19.0567 20.4698 19.6949 21.1063C20.3332 21.7428 21.1459 22.1756 22.0303 22.3499C22.9146 22.5242 23.8308 22.4322 24.6629 22.0856C25.4949 21.7389 26.2054 21.1532 26.7044 20.4025C27.2033 19.6519 27.4684 18.77 27.4659 17.8687C27.4626 16.6628 26.9813 15.5075 26.1274 14.656C25.2736 13.8046 24.117 13.3264 22.9112 13.3264ZM22.9112 20.2086C22.4484 20.2086 21.996 20.0713 21.6112 19.8142C21.2264 19.5571 20.9264 19.1917 20.7493 18.7641C20.5722 18.3365 20.5259 17.866 20.6162 17.4121C20.7065 16.9582 20.9293 16.5413 21.2566 16.2141C21.5838 15.8868 22.0007 15.664 22.4546 15.5737C22.9085 15.4834 23.379 15.5297 23.8066 15.7068C24.2342 15.8839 24.5996 16.1839 24.8567 16.5687C25.1139 16.9535 25.2511 17.4059 25.2511 17.8687C25.2578 18.1801 25.2022 18.4898 25.0875 18.7795C24.9729 19.0692 24.8017 19.3331 24.5837 19.5557C24.3658 19.7783 24.1055 19.9551 23.8183 20.0758C23.5311 20.1966 23.2227 20.2587 22.9112 20.2586V20.2086Z" fill="#7D7D80" stroke="#E3E5EA" stroke-width="0.3" stroke-miterlimit="10"/>
<path id="Vector_4" d="M11.0237 8.32129H4.82974C4.68408 8.32128 4.53987 8.35017 4.40545 8.40629C4.27103 8.46241 4.14906 8.54463 4.04664 8.64821C3.94423 8.75179 3.86341 8.87467 3.80882 9.00972C3.75422 9.14476 3.72693 9.28931 3.72859 9.43497V13.1889C3.72693 13.3345 3.75422 13.479 3.80882 13.6141C3.86341 13.7491 3.94423 13.872 4.04664 13.9756C4.14906 14.0792 4.27103 14.1614 4.40545 14.2175C4.53987 14.2736 4.68408 14.3025 4.82974 14.3025H11.0237C11.3191 14.3025 11.6023 14.1852 11.8112 13.9763C12.02 13.7675 12.1373 13.4842 12.1373 13.1889V9.43497C12.1373 9.13961 12.02 8.85633 11.8112 8.64748C11.6023 8.43863 11.3191 8.32129 11.0237 8.32129ZM9.92255 12.0752H5.93089V10.5486H9.91003L9.92255 12.0752Z" fill="#7D7D80" stroke="#E3E5EA" stroke-width="0.3" stroke-miterlimit="10"/>
</g>
<defs>
<clipPath id="clip0_140_394">
<rect width="36" height="30.8947" fill="white"/>
</clipPath>
</defs>
</svg>
