<svg width="35" height="43" viewBox="0 0 35 43" fill="none" xmlns="http://www.w3.org/2000/svg">
<g id="&#208;&#190;&#208;&#183;&#208;&#181;&#209;&#128;&#208;&#190; 1" clip-path="url(#clip0_140_525)">
<path id="Vector" d="M11.6667 22.7155H23.2364C23.9305 22.7155 24.5961 22.4399 25.0868 21.9491C25.5776 21.4584 25.8533 20.7928 25.8533 20.0988V14.3926L26.241 14.7803C26.319 14.8624 26.413 14.9278 26.5171 14.9724C26.6213 15.0171 26.7334 15.0402 26.8467 15.0402C26.96 15.0402 27.0721 15.0171 27.1763 14.9724C27.2804 14.9278 27.3744 14.8624 27.4525 14.7803L28.4822 13.7505C28.9934 13.2373 29.2805 12.5425 29.2805 11.8182C29.2805 11.0938 28.9934 10.399 28.4822 9.88585L20.4985 1.90212L20.4379 1.82944L19.4082 0.799661C19.1547 0.543929 18.8526 0.341469 18.5197 0.204156C18.1868 0.0668433 17.8299 -0.00255599 17.4698 7.19349e-05C17.1115 -0.00230172 16.7565 0.0672549 16.4256 0.2046C16.0947 0.341945 15.7948 0.544289 15.5435 0.799661L14.5016 1.82944V1.89003L6.51788 9.88585C6.0096 10.4006 5.72461 11.0948 5.72461 11.8182C5.72461 12.5416 6.0096 13.2358 6.51788 13.7505L7.55974 14.7803C7.6387 14.8609 7.73298 14.9249 7.83699 14.9686C7.94101 15.0123 8.05266 15.0348 8.16549 15.0348C8.27831 15.0348 8.39001 15.0123 8.49402 14.9686C8.59803 14.9249 8.69227 14.8609 8.77123 14.7803L9.15892 14.3926V20.0988C9.15833 20.7743 9.41904 21.4239 9.88645 21.9116C10.3539 22.3993 10.9918 22.6874 11.6667 22.7155ZM19.4929 19.7959H15.4102V14.5501H19.4929V19.7959ZM24.1693 20.0988C24.1693 20.3462 24.071 20.5834 23.8961 20.7584C23.7212 20.9333 23.4839 21.0316 23.2364 21.0316H21.1163C21.1891 20.9155 21.227 20.7809 21.2254 20.6439V13.7142C21.2254 13.6034 21.2034 13.4937 21.1606 13.3914C21.1179 13.2892 21.0552 13.1966 20.9763 13.1188C20.8974 13.041 20.8038 12.9796 20.701 12.9384C20.5981 12.8971 20.4881 12.8766 20.3773 12.8782H14.6228C14.512 12.8766 14.402 12.8971 14.2991 12.9384C14.1963 12.9796 14.1027 13.041 14.0238 13.1188C13.9449 13.1966 13.8822 13.2892 13.8395 13.3914C13.7967 13.4937 13.7747 13.6034 13.7747 13.7142V20.6439C13.7752 20.7791 13.8085 20.9121 13.8716 21.0316H11.6667C11.5438 21.0332 11.4217 21.0102 11.3078 20.9639C11.1939 20.9176 11.0904 20.8489 11.0035 20.762C10.9165 20.675 10.8479 20.5716 10.8016 20.4576C10.7553 20.3437 10.7323 20.2217 10.7339 20.0988V12.7086L17.4455 5.99697L21.7342 10.2857L24.1572 12.7086L24.1693 20.0988ZM8.06858 12.9994L7.63247 12.5511C7.53503 12.4543 7.45771 12.3392 7.40494 12.2123C7.35218 12.0855 7.32501 11.9495 7.32501 11.8121C7.32501 11.6748 7.35218 11.5388 7.40494 11.4119C7.45771 11.2851 7.53503 11.17 7.63247 11.0731L15.6768 3.0288V2.96824L16.6581 1.98694C16.8587 1.79514 17.1256 1.68809 17.4031 1.68809C17.6807 1.68809 17.9476 1.79514 18.1482 1.98694L19.1174 2.95612V3.0288L27.1617 11.0731C27.2591 11.17 27.3365 11.2851 27.3892 11.4119C27.442 11.5388 27.4692 11.6748 27.4692 11.8121C27.4692 11.9495 27.442 12.0855 27.3892 12.2123C27.3365 12.3392 27.2591 12.4543 27.1617 12.5511L26.7256 12.9994L17.9301 4.21608C17.8548 4.13412 17.7629 4.06908 17.6606 4.02523C17.5583 3.98137 17.4478 3.95971 17.3365 3.96167C17.2254 3.9612 17.1154 3.98354 17.0133 4.0273C16.9112 4.07106 16.8191 4.1353 16.7429 4.21608L8.06858 12.9994Z" fill="#7D7D80"/>
<path id="Vector_2" d="M1.97474 28.9425C1.97474 28.3321 2.21724 27.7466 2.64892 27.3149C3.0806 26.8832 3.66608 26.6407 4.27657 26.6407C4.88705 26.6407 5.47253 26.8832 5.90421 27.3149C6.33589 27.7466 6.57839 28.3321 6.57839 28.9425C6.58295 29.0941 6.62017 29.2428 6.68746 29.3787C6.84895 30.4062 7.37937 31.3397 8.17949 32.0044C8.97961 32.669 9.99456 33.0193 11.0343 32.9896C12.0741 32.9598 13.0673 32.5522 13.8282 31.843C14.5891 31.1337 15.0653 30.1715 15.1679 29.1364C15.1739 29.0719 15.1739 29.007 15.1679 28.9425C15.2102 28.3593 15.4717 27.8138 15.8998 27.4155C16.328 27.0173 16.8911 26.7959 17.4758 26.7959C18.0605 26.7959 18.6236 27.0173 19.0517 27.4155C19.4799 27.8138 19.7414 28.3593 19.7837 28.9425C19.7841 29.0932 19.8171 29.242 19.8806 29.3787C20.0421 30.4062 20.5725 31.3397 21.3727 32.0044C22.1728 32.669 23.1877 33.0193 24.2274 32.9896C25.2672 32.9598 26.2605 32.5522 27.0213 31.843C27.7822 31.1337 28.2585 30.1715 28.361 29.1364C28.3669 29.0719 28.3669 29.007 28.361 28.9425C28.361 28.3321 28.6035 27.7466 29.0352 27.3149C29.4669 26.8832 30.0524 26.6407 30.6629 26.6407C31.2733 26.6407 31.8588 26.8832 32.2905 27.3149C32.7222 27.7466 32.9647 28.3321 32.9647 28.9425C32.9647 29.2028 33.0681 29.4524 33.2521 29.6364C33.4361 29.8205 33.6858 29.9239 33.946 29.9239C34.0759 29.9255 34.2048 29.9012 34.3252 29.8526C34.4457 29.804 34.5553 29.732 34.6478 29.6408C34.7402 29.5495 34.8135 29.4407 34.8636 29.3209C34.9137 29.201 34.9394 29.0724 34.9394 28.9425C34.968 27.8254 34.5582 26.7415 33.7977 25.9228C33.0372 25.104 31.9864 24.6154 30.8703 24.5616C29.7541 24.5078 28.6612 24.893 27.8255 25.6348C26.9897 26.3765 26.4775 27.416 26.3984 28.5306C26.3926 28.5992 26.3926 28.668 26.3984 28.7366C26.3561 29.3198 26.0946 29.8653 25.6665 30.2636C25.2383 30.6618 24.6753 30.8832 24.0905 30.8832C23.5058 30.8832 22.9427 30.6618 22.5146 30.2636C22.0864 29.8653 21.8249 29.3198 21.7826 28.7366C21.7839 28.5843 21.7464 28.4342 21.6736 28.3005C21.5133 27.2729 20.9841 26.3391 20.185 25.6735C19.3859 25.008 18.3717 24.6565 17.3321 24.6847C16.2926 24.7129 15.2989 25.1189 14.5371 25.8268C13.7753 26.5347 13.2975 27.496 13.1932 28.5306C13.1873 28.5992 13.1873 28.668 13.1932 28.7366C13.1932 29.3471 12.9506 29.9325 12.5189 30.3642C12.0873 30.7959 11.5018 31.0384 10.8913 31.0384C10.2808 31.0384 9.69537 30.7959 9.26369 30.3642C8.83201 29.9325 8.58947 29.3471 8.58947 28.7366C8.58492 28.585 8.54773 28.4363 8.48044 28.3005C8.28937 27.2624 7.72114 26.3316 6.88507 25.6873C6.04901 25.0429 5.00419 24.7306 3.95166 24.8102C2.89913 24.8899 1.91325 25.3561 1.18373 26.1189C0.454207 26.8818 0.0325921 27.8875 0 28.9425C0 29.2028 0.103388 29.4524 0.287419 29.6364C0.47145 29.8205 0.721046 29.9239 0.981306 29.9239H1.10246C1.34339 29.8969 1.56582 29.7818 1.72688 29.6006C1.88794 29.4194 1.97624 29.185 1.97474 28.9425Z" fill="#7D7D80"/>
<path id="Vector_3" d="M30.7234 34.4307C29.658 34.4318 28.6312 34.8294 27.8429 35.546C27.0546 36.2626 26.5613 37.247 26.4589 38.3075C26.4529 38.3719 26.4529 38.4368 26.4589 38.5013C26.4166 39.0845 26.1552 39.6301 25.727 40.0283C25.2988 40.4265 24.7358 40.6479 24.151 40.6479C23.5663 40.6479 23.0033 40.4265 22.5751 40.0283C22.147 39.6301 21.8854 39.0845 21.8431 38.5013C21.8444 38.349 21.8069 38.1989 21.7341 38.0651C21.5726 37.0376 21.0422 36.1041 20.242 35.4394C19.4419 34.7748 18.427 34.4245 17.3873 34.4543C16.3475 34.484 15.3542 34.8916 14.5934 35.6009C13.8325 36.3101 13.3562 37.2724 13.2537 38.3075C13.2478 38.3719 13.2478 38.4368 13.2537 38.5013C13.2537 39.1117 13.0112 39.6972 12.5795 40.1289C12.1478 40.5606 11.5623 40.8031 10.9518 40.8031C10.3414 40.8031 9.75588 40.5606 9.3242 40.1289C8.89252 39.6972 8.65002 39.1117 8.65002 38.5013C8.64546 38.3497 8.60828 38.201 8.54099 38.0651C8.34992 37.027 7.78165 36.0963 6.94558 35.4519C6.10952 34.8076 5.0647 34.4952 4.01217 34.5749C2.95964 34.6546 1.97379 35.1207 1.24427 35.8836C0.514754 36.6465 0.093139 37.6522 0.0605469 38.7072C0.0605274 38.9686 0.163498 39.2195 0.347189 39.4054C0.53088 39.5914 0.780485 39.6975 1.04185 39.7007H1.16297C1.4039 39.6737 1.62636 39.5586 1.78743 39.3774C1.94849 39.1962 2.03675 38.9618 2.03525 38.7194C2.03525 38.1089 2.27779 37.5234 2.70947 37.0917C3.14114 36.66 3.72663 36.4175 4.33711 36.4175C4.9476 36.4175 5.53308 36.66 5.96476 37.0917C6.39644 37.5234 6.63894 38.1089 6.63894 38.7194C6.64363 38.8747 6.68076 39.0274 6.74797 39.1676C6.90946 40.1952 7.43992 41.1286 8.24004 41.7933C9.04016 42.4579 10.0551 42.8082 11.0948 42.7785C12.1346 42.7488 13.1278 42.3411 13.8887 41.6319C14.6496 40.9226 15.1259 39.9604 15.2284 38.9253C15.2348 38.8568 15.2348 38.7879 15.2284 38.7194C15.2707 38.1362 15.5322 37.5906 15.9603 37.1923C16.3885 36.7941 16.9516 36.5727 17.5363 36.5727C18.121 36.5727 18.6841 36.7941 19.1122 37.1923C19.5404 37.5906 19.8019 38.1362 19.8442 38.7194C19.8447 38.8739 19.8777 39.0266 19.9411 39.1676C20.1026 40.1952 20.633 41.1286 21.4332 41.7933C22.2333 42.4579 23.2482 42.8082 24.288 42.7785C25.3277 42.7488 26.321 42.3411 27.0818 41.6319C27.8427 40.9226 28.319 39.9604 28.4215 38.9253C28.4282 38.8568 28.4282 38.7878 28.4215 38.7194C28.4215 38.1089 28.6641 37.5234 29.0958 37.0917C29.5274 36.66 30.1129 36.4175 30.7234 36.4175C31.3339 36.4175 31.9194 36.66 32.3511 37.0917C32.7827 37.5234 33.0252 38.1089 33.0252 38.7194C33.0252 38.9807 33.1282 39.2316 33.3119 39.4176C33.4956 39.6035 33.7452 39.7096 34.0065 39.7128C34.27 39.7128 34.5227 39.6081 34.709 39.4218C34.8953 39.2355 35 38.9828 35 38.7194C34.9936 37.5871 34.541 36.503 33.7403 35.7024C32.9397 34.9017 31.8557 34.4492 30.7234 34.4428V34.4307Z" fill="#7D7D80"/>
</g>
<defs>
<clipPath id="clip0_140_525">
<rect width="35" height="42.7657" fill="white"/>
</clipPath>
</defs>
</svg>
