<svg width="45" height="33" viewBox="0 0 45 33" fill="none" xmlns="http://www.w3.org/2000/svg">
<g id="&#208;&#179;&#208;&#190;&#209;&#128;&#208;&#184; 1" clip-path="url(#clip0_140_512)">
<path id="Vector" d="M12.4057 32.0759H0.825798C0.650367 32.065 0.486356 31.9853 0.369515 31.8539C0.332681 31.7813 0.313477 31.7011 0.313477 31.6196C0.313477 31.5382 0.332681 31.4579 0.369515 31.3853L15.4147 10.1741C15.4498 10.1028 15.5042 10.043 15.5719 10.0015C15.6396 9.96002 15.7177 9.93861 15.797 9.93974C15.9394 9.94643 16.0748 10.0032 16.1793 10.1L20.8902 16.0318C20.9707 16.137 21.0068 16.2695 20.9907 16.4009C20.9745 16.5324 20.9075 16.6522 20.8039 16.7347C20.7007 16.8146 20.5702 16.8503 20.4408 16.8341C20.3113 16.8179 20.1936 16.7512 20.1133 16.6484L15.871 11.173L1.76305 31.151H12.4057C12.5249 31.1624 12.6362 31.2158 12.7198 31.3016C12.8034 31.3874 12.8538 31.5001 12.862 31.6196C12.8534 31.7378 12.8026 31.849 12.7188 31.9328C12.635 32.0165 12.5239 32.0673 12.4057 32.0759Z" fill="#7D7D80" stroke="#7D7D80" stroke-width="0.5" stroke-miterlimit="10"/>
<path id="Vector_2" d="M44.1733 32.0759H12.4058C12.3261 32.0777 12.2474 32.058 12.178 32.019C12.1086 31.9799 12.0509 31.9229 12.0111 31.8539C11.9743 31.7813 11.9551 31.701 11.9551 31.6196C11.9551 31.5382 11.9743 31.4579 12.0111 31.3853L22.4318 12.0238L27.0563 3.46531C27.0913 3.39408 27.1458 3.33424 27.2135 3.29276C27.2812 3.25128 27.3593 3.22987 27.4386 3.231C27.5287 3.23562 27.6168 3.25879 27.6975 3.29912C27.7781 3.33944 27.8495 3.39605 27.9072 3.46531L44.642 31.4593C44.6788 31.5319 44.698 31.6122 44.698 31.6936C44.698 31.775 44.6788 31.8553 44.642 31.9279C44.5097 32.0341 44.3426 32.0869 44.1733 32.0759ZM13.1703 31.151H43.3348L27.4386 4.62454L13.1703 31.151Z" fill="#7D7D80" stroke="#7D7D80" stroke-width="0.5" stroke-miterlimit="10"/>
<path id="Vector_3" d="M29.7576 16.6484H29.5973L26.8225 15.7235L24.0478 16.6484C23.8998 16.7347 23.8135 16.6484 23.6655 16.6484C23.5175 16.6484 23.4312 16.5004 23.4312 16.3401L22.4323 12.4924C22.4056 12.4234 22.394 12.3494 22.3984 12.2755C22.4027 12.2015 22.4229 12.1294 22.4574 12.0639C22.492 11.9984 22.5402 11.9411 22.5988 11.8959C22.6574 11.8506 22.725 11.8184 22.7971 11.8015C22.8692 11.7846 22.9441 11.7834 23.0167 11.7978C23.0893 11.8123 23.158 11.8422 23.2181 11.8855C23.2782 11.9288 23.3283 11.9844 23.3651 12.0487C23.4018 12.113 23.4244 12.1844 23.4312 12.2581L24.2821 15.5755L26.6745 14.7986H26.9828L29.5232 15.6495L32.224 12.0978C32.3134 12.0165 32.4289 11.9699 32.5497 11.9664C32.6705 11.9629 32.7885 12.0028 32.8824 12.0788C32.9764 12.1548 33.04 12.2619 33.0617 12.3808C33.0834 12.4997 33.0619 12.6224 33.0009 12.7267L30.0659 16.5744C29.9685 16.6179 29.864 16.643 29.7576 16.6484Z" fill="#7D7D80" stroke="#7D7D80" stroke-width="0.5" stroke-miterlimit="10"/>
<path id="Vector_4" d="M15.6122 17.4624C15.5329 17.4635 15.4548 17.4421 15.3872 17.4006C15.3195 17.3592 15.265 17.2994 15.23 17.2281L13.3061 14.2807C13.2697 14.2259 13.2446 14.1644 13.2323 14.0997C13.22 14.035 13.2208 13.9686 13.2346 13.9042C13.2484 13.8399 13.2749 13.7789 13.3126 13.725C13.3503 13.671 13.3984 13.6252 13.4541 13.5901C13.5673 13.5209 13.7031 13.499 13.8322 13.529C13.9614 13.559 14.0737 13.6385 14.1448 13.7504L15.8466 16.2169L18.313 14.515C18.4261 14.4459 18.5619 14.4239 18.6911 14.4539C18.8203 14.4839 18.9325 14.5634 19.0036 14.6754C19.04 14.7302 19.0652 14.7917 19.0775 14.8563C19.0898 14.921 19.089 14.9875 19.0752 15.0519C19.0614 15.1162 19.0349 15.1771 18.9971 15.2311C18.9594 15.285 18.9113 15.3309 18.8556 15.366L15.9205 17.3761C15.8307 17.4392 15.7219 17.4697 15.6122 17.4624Z" fill="#7D7D80" stroke="#7D7D80" stroke-width="0.5" stroke-miterlimit="10"/>
<path id="Vector_5" d="M12.9365 8.01594H6.88141C6.16513 8.01594 5.4782 7.73138 4.97171 7.2249C4.46522 6.71841 4.18066 6.03148 4.18066 5.3152C4.18066 4.59892 4.46522 3.91195 4.97171 3.40546C5.4782 2.89897 6.16513 2.61445 6.88141 2.61445H7.2637C7.72583 2.17829 8.32052 1.90916 8.9532 1.84987C9.18028 1.38897 9.53141 1.00052 9.96711 0.728203C10.4028 0.455887 10.9058 0.310497 11.4196 0.30835C13.2421 1.58326 14.7035 3.30813 15.6619 5.3152C15.6202 6.02208 15.319 6.68868 14.816 7.18711C14.313 7.68554 13.6437 7.9807 12.9365 8.01594ZM6.88141 3.46538C6.41043 3.46538 5.95876 3.65246 5.62572 3.98549C5.29269 4.31852 5.10557 4.77023 5.10557 5.24121C5.10557 5.71219 5.29269 6.16386 5.62572 6.49689C5.95876 6.82992 6.41043 7.017 6.88141 7.017H12.8872C13.1213 7.02032 13.3537 6.97666 13.5706 6.88859C13.7876 6.80052 13.9847 6.66987 14.1503 6.5043C14.3158 6.33874 14.4465 6.14165 14.5346 5.92469C14.6226 5.70774 14.6663 5.47533 14.663 5.24121C14.6618 4.87421 14.5508 4.51597 14.3441 4.21265C14.1375 3.90933 13.8448 3.67483 13.5038 3.53937C13.4128 3.50258 13.3349 3.43951 13.28 3.35823C13.2251 3.27695 13.1957 3.18117 13.1955 3.08308V2.99675C13.2005 2.76378 13.1584 2.53218 13.0715 2.31594C12.9847 2.0997 12.8549 1.90328 12.6902 1.73851C12.5254 1.57373 12.329 1.44403 12.1127 1.35719C11.8965 1.27035 11.6649 1.22821 11.432 1.23326C11.0664 1.23345 10.7092 1.34268 10.406 1.54698C10.1029 1.75129 9.86753 2.04137 9.73013 2.38014C9.70389 2.48034 9.6415 2.56728 9.55498 2.6242C9.46845 2.68113 9.3639 2.70401 9.2615 2.68844H9.18751C8.92757 2.69257 8.67116 2.74934 8.43376 2.85532C8.19637 2.9613 7.98293 3.11428 7.80632 3.30505C7.646 3.46537 7.49801 3.53937 7.33769 3.46538C7.17737 3.39138 7.07872 3.46538 6.88141 3.46538Z" fill="#7D7D80" stroke="#7D7D80" stroke-width="0.5" stroke-miterlimit="10"/>
<path id="Vector_6" d="M31.6814 3.18173C31.5918 3.18446 31.5029 3.16438 31.4231 3.1234C31.3433 3.08242 31.2752 3.02188 31.2252 2.94742C31.1924 2.89299 31.1724 2.83182 31.1667 2.76854C31.161 2.70526 31.1698 2.64152 31.1924 2.58213C31.215 2.52274 31.2507 2.46926 31.297 2.42572C31.3433 2.38219 31.3988 2.34973 31.4595 2.33081C31.5335 2.25682 33.6916 1.25791 34.9248 2.4048C34.9981 2.50733 35.0376 2.63023 35.0376 2.75627C35.0376 2.88232 34.9981 3.00521 34.9248 3.10774C34.8242 3.18001 34.7034 3.21888 34.5795 3.21888C34.4556 3.21888 34.3348 3.18001 34.2342 3.10774C33.6176 2.49113 32.2981 2.94742 31.9158 3.18173H31.6814Z" fill="#7D7D80" stroke="#7D7D80" stroke-width="0.5" stroke-miterlimit="10"/>
<path id="Vector_7" d="M37.4654 3.18162C37.4252 3.18663 37.3844 3.18257 37.346 3.16976C37.3076 3.15696 37.2726 3.13574 37.2434 3.10763C37.2434 3.10763 35.6156 2.33069 34.925 3.02129C34.83 3.09254 34.7125 3.12715 34.5941 3.11873C34.4756 3.11031 34.3642 3.05945 34.2802 2.97549C34.1963 2.89153 34.1454 2.7801 34.137 2.66166C34.1286 2.54321 34.1631 2.42569 34.2344 2.3307C35.4676 1.09748 37.6257 2.18271 37.6997 2.25671C37.8043 2.31624 37.885 2.41037 37.9277 2.5229C37.9705 2.63542 37.9727 2.75932 37.934 2.87331C37.8903 2.9617 37.8239 3.03684 37.7416 3.09103C37.6592 3.14522 37.5639 3.17649 37.4654 3.18162Z" fill="#7D7D80" stroke="#7D7D80" stroke-width="0.5" stroke-miterlimit="10"/>
<path id="Vector_8" d="M36.4784 6.47446C36.3903 6.4689 36.3043 6.44522 36.2258 6.40491C36.1473 6.36459 36.078 6.3085 36.0221 6.24014C35.9891 6.18652 35.9687 6.12614 35.9622 6.06352C35.9557 6.0009 35.9634 5.93763 35.9848 5.8784C36.0061 5.81917 36.0405 5.76551 36.0854 5.72138C36.1303 5.67726 36.1845 5.64383 36.2441 5.62353C36.3304 5.54954 38.4886 4.55063 39.7218 5.69752C39.7679 5.74368 39.8045 5.79845 39.8295 5.85875C39.8545 5.91906 39.8673 5.98372 39.8673 6.049C39.8673 6.11427 39.8545 6.1789 39.8295 6.2392C39.8045 6.29951 39.7679 6.35427 39.7218 6.40043C39.6756 6.44658 39.6208 6.4832 39.5605 6.50818C39.5002 6.53316 39.4356 6.54604 39.3703 6.54604C39.305 6.54604 39.2404 6.53316 39.1801 6.50818C39.1198 6.4832 39.065 6.44658 39.0188 6.40043C38.4022 5.78382 37.095 6.24014 36.7127 6.47446H36.4784Z" fill="#7D7D80" stroke="#7D7D80" stroke-width="0.5" stroke-miterlimit="10"/>
<path id="Vector_9" d="M42.25 6.47434C42.208 6.47873 42.1655 6.47443 42.1252 6.4617C42.0849 6.44897 42.0476 6.42805 42.0157 6.40031C42.0157 6.40031 40.4002 5.62342 39.7096 6.31402C39.6095 6.39304 39.4857 6.43599 39.3581 6.43599C39.2306 6.43599 39.1068 6.39304 39.0066 6.31402C38.9344 6.21339 38.8955 6.09262 38.8955 5.96872C38.8955 5.84482 38.9344 5.72405 39.0066 5.62342C40.2399 4.39021 42.4103 5.47544 42.4843 5.54943C42.5889 5.60897 42.6695 5.70306 42.7123 5.81558C42.7551 5.92811 42.7573 6.05205 42.7186 6.16604C42.6901 6.26483 42.6271 6.35015 42.5412 6.40667C42.4553 6.4632 42.352 6.48721 42.25 6.47434Z" fill="#7D7D80" stroke="#7D7D80" stroke-width="0.5" stroke-miterlimit="10"/>
</g>
<defs>
<clipPath id="clip0_140_512">
<rect width="45" height="32.3965" fill="white"/>
</clipPath>
</defs>
</svg>
