<svg width="47" height="32" viewBox="0 0 47 32" fill="none" xmlns="http://www.w3.org/2000/svg">
<g id="&#208;&#189;&#208;&#176; &#208;&#186;&#208;&#190;&#208;&#187;&#208;&#181;&#209;&#129;&#208;&#176;&#209;&#133; 1" clip-path="url(#clip0_140_323)">
<path id="Vector" d="M26.7842 15.9072C27.093 15.9072 27.3892 16.0299 27.6076 16.2483C27.826 16.4667 27.9487 16.7629 27.9487 17.0717C27.917 17.3579 27.7805 17.6222 27.5654 17.8136C27.3504 18.005 27.0721 18.1099 26.7842 18.1081C26.4969 18.1081 26.2215 17.9941 26.0184 17.791C25.8152 17.5879 25.7012 17.3124 25.7012 17.0252C25.7012 16.7379 25.8152 16.4625 26.0184 16.2594C26.2215 16.0563 26.4969 15.9422 26.7842 15.9422V15.9072Z" fill="#7D7D80" stroke="#7D7D80" stroke-width="0.5" stroke-miterlimit="10"/>
<path id="Vector_2" d="M11.6801 24.5365C11.989 24.5365 12.2852 24.6591 12.5036 24.8775C12.722 25.0959 12.8447 25.3921 12.8447 25.701C12.813 25.9871 12.6765 26.2514 12.4614 26.4428C12.2464 26.6342 11.968 26.7391 11.6801 26.7374C11.3713 26.7374 11.0751 26.6147 10.8567 26.3963C10.6383 26.1779 10.5156 25.8817 10.5156 25.5729C10.5181 25.4264 10.551 25.282 10.6121 25.1489C10.6732 25.0158 10.7612 24.8967 10.8707 24.7993C10.9801 24.7019 11.1085 24.6283 11.2479 24.5831C11.3872 24.5378 11.5344 24.522 11.6801 24.5365Z" fill="#7D7D80" stroke="#7D7D80" stroke-width="0.5" stroke-miterlimit="10"/>
<path id="Vector_3" d="M18.1551 14.2771H11.6804C11.5462 14.2661 11.4204 14.207 11.3263 14.1107C11.2322 14.0145 11.1759 13.8874 11.168 13.753C11.1762 13.6198 11.2329 13.4943 11.3272 13.3999C11.4216 13.3055 11.5472 13.2489 11.6804 13.2406H17.631V6.7659H11.6804C11.5563 6.74724 11.443 6.68469 11.3611 6.58959C11.2792 6.49449 11.2342 6.37316 11.2342 6.24768C11.2342 6.12219 11.2792 6.00089 11.3611 5.9058C11.443 5.8107 11.5563 5.74815 11.6804 5.72949H18.1551C18.2902 5.73802 18.4173 5.79629 18.5119 5.89308C18.6066 5.98986 18.662 6.11826 18.6675 6.2535V13.753C18.6595 13.8874 18.6033 14.0145 18.5092 14.1107C18.415 14.207 18.2893 14.2661 18.1551 14.2771Z" fill="#7D7D80" stroke="#7D7D80" stroke-width="0.5" stroke-miterlimit="10"/>
<path id="Vector_4" d="M11.6802 14.2769H6.25356C6.11728 14.2686 5.98874 14.2108 5.8922 14.1142C5.79567 14.0177 5.73779 13.8892 5.72951 13.7529V9.53733C5.72796 9.02667 5.8276 8.52075 6.02267 8.04881C6.21773 7.57686 6.50435 7.14825 6.86599 6.78769C7.22762 6.42714 7.6571 6.14182 8.12963 5.94817C8.60215 5.75453 9.10838 5.65642 9.61904 5.65949H11.6802C11.8155 5.66499 11.9439 5.72038 12.0407 5.81501C12.1374 5.90964 12.1957 6.03676 12.2043 6.17185V13.7645C12.1933 13.8987 12.1342 14.0245 12.038 14.1186C11.9417 14.2127 11.8146 14.269 11.6802 14.2769ZM6.76595 13.2405H11.0747V6.76577H9.52585C9.16112 6.76104 8.79916 6.82958 8.46141 6.96734C8.12366 7.1051 7.81701 7.30926 7.55963 7.56772C7.30224 7.82619 7.09938 8.1337 6.96304 8.47203C6.82671 8.81036 6.75968 9.17262 6.76595 9.53733V13.2405Z" fill="#7D7D80" stroke="#7D7D80" stroke-width="0.5" stroke-miterlimit="10"/>
<path id="Vector_5" d="M19.1913 18.5857H0.943218C0.819129 18.5671 0.705847 18.5045 0.623978 18.4094C0.542108 18.3143 0.49707 18.193 0.49707 18.0675C0.49707 17.9421 0.542108 17.8207 0.623978 17.7256C0.705847 17.6305 0.819129 17.568 0.943218 17.5493H19.3193C19.4556 17.5576 19.5841 17.6155 19.6807 17.712C19.7772 17.8085 19.8351 17.9371 19.8434 18.0733C19.7968 18.3295 19.4474 18.5857 19.1913 18.5857Z" fill="#7D7D80" stroke="#7D7D80" stroke-width="0.5" stroke-miterlimit="10"/>
<path id="Vector_6" d="M31.0926 25.0604C30.9584 25.0494 30.8327 24.9904 30.7386 24.8941C30.6444 24.7978 30.5882 24.6708 30.5802 24.5364V13.2405C30.5624 12.3725 30.222 11.5422 29.6253 10.9115C29.0038 10.3008 28.1677 9.95795 27.2963 9.95658C26.8656 9.95658 26.4391 10.0416 26.0413 10.2068C25.6436 10.372 25.2823 10.614 24.9783 10.9191C24.6743 11.2242 24.4335 11.5864 24.2697 11.9847C24.106 12.3831 24.0225 12.8098 24.024 13.2405V24.5364C24.0133 24.6718 23.9547 24.799 23.8586 24.895C23.7626 24.9911 23.6354 25.0497 23.5 25.0604C23.3657 25.0494 23.24 24.9904 23.1459 24.8941C23.0517 24.7978 22.9955 24.6708 22.9876 24.5364V13.2405C22.9813 12.6724 23.0885 12.1088 23.3027 11.5826C23.5169 11.0564 23.8338 10.5782 24.235 10.1759C24.6362 9.77362 25.1135 9.45535 25.6392 9.23974C26.1648 9.02413 26.7282 8.9155 27.2963 8.92018C27.8617 8.91125 28.4226 9.02176 28.9423 9.2445C29.4621 9.46725 29.9289 9.7972 30.3124 10.2128C31.1229 11.015 31.5905 12.1004 31.6167 13.2405V24.5364C31.606 24.6718 31.5474 24.799 31.4513 24.895C31.3552 24.9911 31.2281 25.0497 31.0926 25.0604Z" fill="#7D7D80" stroke="#7D7D80" stroke-width="0.5" stroke-miterlimit="10"/>
<path id="Vector_7" d="M7.4528 25.0603H0.815064C0.679635 25.0497 0.552435 24.991 0.456375 24.895C0.360316 24.7989 0.301686 24.6717 0.291016 24.5363V8.92011C0.300214 6.63436 1.21231 4.44487 2.82859 2.82859C4.44487 1.21231 6.63436 0.300214 8.92011 0.291016H34.2833C34.4188 0.301686 34.5459 0.360316 34.642 0.456375C34.738 0.552435 34.7967 0.679635 34.8074 0.815064V21.3455C34.7967 21.481 34.738 21.6081 34.642 21.7042C34.5459 21.8003 34.4188 21.8589 34.2833 21.8696C34.1491 21.8586 34.0234 21.7995 33.9293 21.7032C33.8351 21.607 33.7789 21.48 33.7709 21.3455V1.38567H8.92011C6.90735 1.38875 4.97791 2.18969 3.55468 3.61292C2.13144 5.03616 1.3305 6.96557 1.32742 8.97832V24.1171H7.37128C7.50447 24.1253 7.63006 24.182 7.72442 24.2764C7.81878 24.3707 7.87541 24.4963 7.88367 24.6295C7.93025 24.7925 7.80216 25.0603 7.4528 25.0603Z" fill="#7D7D80" stroke="#7D7D80" stroke-width="0.5" stroke-miterlimit="10"/>
<path id="Vector_8" d="M34.2834 25.0603H15.8258C15.6904 25.0497 15.5632 24.991 15.4672 24.895C15.3711 24.7989 15.3124 24.6717 15.3018 24.5363C15.3127 24.4021 15.3718 24.2764 15.4681 24.1822C15.5644 24.0881 15.6914 24.0319 15.8258 24.0239H34.2834C34.4179 24.0319 34.5449 24.0881 34.6411 24.1822C34.7374 24.2764 34.7965 24.4021 34.8075 24.5363C34.7968 24.6717 34.7382 24.7989 34.6421 24.895C34.546 24.991 34.4189 25.0497 34.2834 25.0603Z" fill="#7D7D80" stroke="#7D7D80" stroke-width="0.5" stroke-miterlimit="10"/>
<path id="Vector_9" d="M11.6804 30.4988C10.3987 30.4988 9.16943 29.9896 8.26311 29.0833C7.35679 28.177 6.84766 26.9478 6.84766 25.6661C6.86813 25.2732 6.92662 24.8832 7.02233 24.5015C7.28437 23.4652 7.88498 22.5461 8.72884 21.89C9.57271 21.2339 10.6115 20.8784 11.6804 20.8799C12.7556 20.853 13.8069 21.199 14.656 21.8591C15.5051 22.5193 16.0995 23.4529 16.3385 24.5015C16.4395 24.8821 16.4981 25.2726 16.5132 25.6661C16.5147 26.3011 16.3907 26.9303 16.1484 27.5173C15.9061 28.1043 15.5502 28.6377 15.1011 29.0868C14.652 29.5358 14.1187 29.8918 13.5316 30.1341C12.9446 30.3764 12.3155 30.5004 11.6804 30.4988ZM11.6804 21.8814C10.8436 21.8726 10.0288 22.1493 9.37041 22.6659C8.71202 23.1824 8.24936 23.908 8.05873 24.7228C7.99169 25.0325 7.96433 25.3495 7.97724 25.6661C7.97724 26.6729 8.37721 27.6385 9.08916 28.3505C9.80111 29.0624 10.7667 29.4624 11.7736 29.4624C12.7804 29.4624 13.746 29.0624 14.458 28.3505C15.1699 27.6385 15.5699 26.6729 15.5699 25.6661C15.5846 25.3488 15.5533 25.0311 15.4767 24.7228C15.2154 23.9138 14.7103 23.2055 14.0307 22.6947C13.351 22.184 12.5301 21.8958 11.6804 21.8697V21.8814Z" fill="#7D7D80" stroke="#7D7D80" stroke-width="0.5" stroke-miterlimit="10"/>
<path id="Vector_10" d="M3.06249 21.8697H0.943055C0.808853 21.8587 0.683124 21.7996 0.588987 21.7033C0.49485 21.6071 0.438631 21.4801 0.430664 21.3456C0.438926 21.2125 0.495551 21.0869 0.589911 20.9925C0.684271 20.8981 0.809867 20.8415 0.943055 20.8333H3.10904C3.24223 20.8415 3.36783 20.8981 3.46219 20.9925C3.55655 21.0869 3.61317 21.2125 3.62144 21.3456C3.61254 21.4878 3.54975 21.6211 3.44588 21.7185C3.342 21.8159 3.20488 21.8699 3.06249 21.8697Z" fill="#7D7D80" stroke="#7D7D80" stroke-width="0.5" stroke-miterlimit="10"/>
<path id="Vector_11" d="M34.2834 18.5857H31.0111C30.9366 18.5969 30.8604 18.5919 30.788 18.571C30.7155 18.5501 30.6485 18.5138 30.5913 18.4646C30.5342 18.4154 30.4883 18.3545 30.4569 18.286C30.4254 18.2174 30.4092 18.1429 30.4092 18.0675C30.4092 17.9921 30.4254 17.9176 30.4569 17.8491C30.4883 17.7805 30.5342 17.7196 30.5913 17.6704C30.6485 17.6212 30.7155 17.5849 30.788 17.564C30.8604 17.5431 30.9366 17.5381 31.0111 17.5493H34.2834C34.358 17.5381 34.4341 17.5431 34.5065 17.564C34.579 17.5849 34.6461 17.6212 34.7032 17.6704C34.7603 17.7196 34.8062 17.7805 34.8376 17.8491C34.8691 17.9176 34.8853 17.9921 34.8853 18.0675C34.8853 18.1429 34.8691 18.2174 34.8376 18.286C34.8062 18.3545 34.7603 18.4154 34.7032 18.4646C34.6461 18.5138 34.579 18.5501 34.5065 18.571C34.4341 18.5919 34.358 18.5969 34.2834 18.5857Z" fill="#7D7D80" stroke="#7D7D80" stroke-width="0.5" stroke-miterlimit="10"/>
<path id="Vector_12" d="M46.1969 25.0603H34.2839C34.1497 25.0494 34.0239 24.9903 33.9298 24.894C33.8357 24.7978 33.7795 24.6707 33.7715 24.5363V21.264C33.777 21.1288 33.8324 21.0004 33.927 20.9036C34.0216 20.8068 34.1488 20.7485 34.2839 20.74H46.1969C46.332 20.7485 46.4591 20.8068 46.5538 20.9036C46.6484 21.0004 46.7038 21.1288 46.7093 21.264V24.5363C46.7013 24.6707 46.6451 24.7978 46.551 24.894C46.4568 24.9903 46.3311 25.0494 46.1969 25.0603ZM34.8079 24.0239H45.5913V21.8696H34.8079V24.0239Z" fill="#7D7D80" stroke="#7D7D80" stroke-width="0.5" stroke-miterlimit="10"/>
<path id="Vector_13" d="M38.604 31.5235H1.93329C1.8001 31.5152 1.67451 31.4586 1.58015 31.3643C1.48579 31.2699 1.42916 31.1443 1.4209 31.0111C1.42887 30.8767 1.48508 30.7497 1.57922 30.6534C1.67336 30.5571 1.79909 30.498 1.93329 30.4871H38.604C38.7382 30.498 38.8639 30.5571 38.9581 30.6534C39.0522 30.7497 39.1084 30.8767 39.1164 31.0111C39.1081 31.1443 39.0515 31.2699 38.9571 31.3643C38.8628 31.4586 38.7372 31.5152 38.604 31.5235Z" fill="#7D7D80" stroke="#7D7D80" stroke-width="0.5" stroke-miterlimit="10"/>
<path id="Vector_14" d="M42.8659 29.3342C42.7327 29.3259 42.6071 29.2693 42.5128 29.1749C42.4184 29.0805 42.3618 28.955 42.3535 28.8218V24.5014C42.3618 24.3682 42.4184 24.2426 42.5128 24.1483C42.6071 24.0539 42.7327 23.9973 42.8659 23.989C43.0003 23.997 43.1274 24.0532 43.2236 24.1473C43.3199 24.2415 43.379 24.3672 43.39 24.5014V28.8218C43.379 28.956 43.3199 29.0817 43.2236 29.1758C43.1274 29.27 43.0003 29.3262 42.8659 29.3342Z" fill="#7D7D80" stroke="#7D7D80" stroke-width="0.5" stroke-miterlimit="10"/>
<path id="Vector_15" d="M34.2837 6.76587H28.892C28.8174 6.77707 28.7413 6.77208 28.6689 6.75119C28.5964 6.73029 28.5293 6.69398 28.4722 6.64479C28.415 6.59559 28.3692 6.53464 28.3378 6.4661C28.3063 6.39756 28.29 6.32305 28.29 6.24765C28.29 6.17224 28.3063 6.09773 28.3378 6.02919C28.3692 5.96065 28.415 5.89974 28.4722 5.85054C28.5293 5.80135 28.5964 5.76503 28.6689 5.74414C28.7413 5.72324 28.8174 5.71825 28.892 5.72946H34.3187C34.3932 5.71825 34.4693 5.72324 34.5418 5.74414C34.6142 5.76503 34.6813 5.80135 34.7384 5.85054C34.7956 5.89974 34.8414 5.96065 34.8729 6.02919C34.9043 6.09773 34.9206 6.17224 34.9206 6.24765C34.9206 6.32305 34.9043 6.39756 34.8729 6.4661C34.8414 6.53464 34.7956 6.59559 34.7384 6.64479C34.6813 6.69398 34.6142 6.73029 34.5418 6.75119C34.4693 6.77208 34.3932 6.77707 34.3187 6.76587H34.2837Z" fill="#7D7D80" stroke="#7D7D80" stroke-width="0.5" stroke-miterlimit="10"/>
</g>
<defs>
<clipPath id="clip0_140_323">
<rect width="47" height="31.8147" fill="white"/>
</clipPath>
</defs>
</svg>
