<svg width="27" height="35" viewBox="0 0 30 40" fill="none" xmlns="http://www.w3.org/2000/svg">
<g id="&#209;&#135;&#208;&#190;&#208;&#178;&#208;&#181;&#208;&#189; 1" clip-path="url(#clip0_140_361)">
<path id="Vector" d="M4.24168 38.6022C4.32678 38.7448 4.44755 38.8627 4.5921 38.9445C4.73666 39.0262 4.90001 39.0688 5.06606 39.0682H22.4615C22.6205 39.0687 22.7774 39.031 22.9188 38.9582C23.0602 38.8854 23.182 38.7797 23.2739 38.65L27.8737 31.9236C27.9704 31.7763 28.0256 31.6057 28.0334 31.4297C28.0413 31.2537 28.0016 31.0788 27.9184 30.9235C27.8352 30.7681 27.7117 30.6381 27.5609 30.5471C27.4101 30.4561 27.2375 30.4074 27.0613 30.4063H11.1712V28.4708H29.0206C29.1556 28.4711 29.2891 28.4436 29.4129 28.39C29.5367 28.3363 29.648 28.2577 29.74 28.1589C29.832 28.0602 29.9026 27.9436 29.9474 27.8164C29.9922 27.6891 30.0102 27.554 30.0003 27.4194C29.5882 23.7434 28.7255 20.1321 27.4316 16.6667C24.6479 9.21153 20.2035 4.02633 14.5882 1.6488C14.4195 1.53258 14.2195 1.47012 14.0147 1.46959H11.1712V1.00362C11.1712 0.745851 11.0696 0.498452 10.8885 0.315064C10.7073 0.131676 10.4612 0.0270694 10.2034 0.0239258C9.94361 0.0239258 9.69441 0.127144 9.51068 0.310871C9.32696 0.494599 9.22374 0.743794 9.22374 1.00362V30.4182H0.968096C0.794905 30.4174 0.624676 30.4632 0.475184 30.5506C0.325691 30.6381 0.202411 30.764 0.118198 30.9154C0.0339843 31.0667 -0.00807037 31.2379 -0.00358099 31.411C0.000908391 31.5842 0.0517767 31.7529 0.14372 31.8997L4.24168 38.6022ZM14.9346 22.8555V3.95464C21.1234 7.12071 24.4926 13.6918 26.2011 19.104C26.6431 20.454 26.9776 21.7324 27.2405 22.8674C27.5989 24.4206 27.802 25.699 27.9215 26.5353H14.9346V22.8555ZM11.1712 3.40507H13.0469V26.5234H11.2309L11.1712 3.40507ZM25.2214 32.3537L21.9597 37.1326H5.61563L2.70045 32.3537H25.2214Z" fill="#7D7D80"/>
</g>
<defs>
<clipPath id="clip0_140_361">
<rect width="30" height="39.0562" fill="white"/>
</clipPath>
</defs>
</svg>
